<svg width="48" height="49" viewBox="0 0 48 49" fill="none" xmlns="http://www.w3.org/2000/svg">
<g clip-path="url(#clip0_63_97)">
<path fill-rule="evenodd" clip-rule="evenodd" d="M12.9883 16.5573C13.0161 17.0866 13.0111 17.091 12.9816 16.5606C12.9816 16.5606 13.6577 28.7353 13.9557 34.0946C14.0625 36.0173 15.6527 37.5218 17.5786 37.5218H17.5797C19.5102 37.5218 21.2421 36.337 21.9416 34.5378L23.8853 29.541C23.902 29.4982 23.9432 29.4698 23.9888 29.4698C24.0344 29.4698 24.0755 29.4982 24.0922 29.5404C24.0922 29.541 26.036 34.5378 26.036 34.5378C26.7354 36.337 28.4673 37.5218 30.3978 37.5218H30.3989C32.3249 37.5218 33.915 36.0173 34.0218 34.0946C34.3198 28.7353 34.9959 16.5606 34.9959 16.5606L34.9892 16.5573C34.9948 16.4477 34.9976 16.3377 34.9976 16.227C34.9976 12.7592 32.1825 9.94421 28.7148 9.94421C27.1635 9.94421 25.7424 10.5074 24.646 11.441C24.6443 11.4426 24.6426 11.4437 24.6409 11.4454C24.2662 11.7684 23.7119 11.7684 23.3377 11.4454C23.3355 11.4437 23.3338 11.4421 23.3316 11.4404C22.2346 10.5074 20.814 9.94421 19.2628 9.94421C15.795 9.94421 12.98 12.7592 12.98 16.227C12.98 16.3377 12.9827 16.4477 12.9883 16.5573ZM32.991 16.5678L32.0235 33.9834C31.9757 34.8458 31.2624 35.5202 30.3989 35.5202H30.3978C29.293 35.5202 28.3017 34.8419 27.9013 33.8122L25.9581 28.8154C25.6423 28.0031 24.86 27.4682 23.9888 27.4682C23.1175 27.4682 22.3352 28.0031 22.0194 28.8154L20.0762 33.8122C19.6759 34.8419 18.6845 35.5202 17.5797 35.5202H17.5786C16.7152 35.5202 16.0018 34.8458 15.954 33.9834L14.9866 16.5678C14.9893 16.5295 14.9893 16.4911 14.9877 16.4527C14.9838 16.3782 14.9816 16.3026 14.9816 16.227C14.9816 13.864 16.8998 11.9458 19.2628 11.9458C20.3197 11.9458 21.2877 12.3295 22.0355 12.965C23.1548 13.9318 24.8222 13.9324 25.9481 12.9611L25.9431 12.9655C26.6904 12.3295 27.6578 11.9458 28.7148 11.9458C31.0778 11.9458 32.996 13.864 32.996 16.227C32.996 16.3026 32.9937 16.3782 32.9898 16.4527C32.9882 16.4911 32.9882 16.5295 32.991 16.5678Z" fill="#FFC700"/>
<path fill-rule="evenodd" clip-rule="evenodd" d="M6.99277 34.5C7.89677 34.5 8.73677 34.966 9.21577 35.732L11.2428 38.975C12.6128 41.168 15.0168 42.5 17.6028 42.5H21.9998C22.5518 42.5 22.9998 42.052 22.9998 41.5C22.9998 40.948 22.5518 40.5 21.9998 40.5H17.6028C15.7058 40.5 13.9438 39.523 12.9388 37.915L10.9118 34.672C10.0668 33.321 8.58577 32.5 6.99277 32.5C5.36377 32.5 3.81377 33.206 2.74477 34.435C1.67577 35.664 1.19177 37.296 1.41677 38.909C1.67777 40.808 1.65477 42.774 1.17777 44.558C0.876771 45.443 1.01777 46.425 1.56177 47.193C2.10777 47.964 3.00877 48.5 3.95377 48.5H44.0698C45.0138 48.5 45.9148 47.964 46.4608 47.193C47.0028 46.428 47.1458 45.45 46.8458 44.562C46.3678 42.78 46.3448 40.811 46.6058 38.907C46.8318 37.296 46.3468 35.664 45.2778 34.435C44.2088 33.206 42.6598 32.5 41.0308 32.5C39.4368 32.5 37.9558 33.321 37.1108 34.672L35.0848 37.915C34.0798 39.523 32.3168 40.5 30.4208 40.5L25.9988 40.503C25.4468 40.503 24.9998 40.952 24.9998 41.504C24.9998 42.056 25.4488 42.503 26.0008 42.503L30.4208 42.5C33.0068 42.5 35.4098 41.168 36.7808 38.975L38.8068 35.732C39.2868 34.966 40.1268 34.5 41.0308 34.5C42.0808 34.5 43.0798 34.955 43.7688 35.748C44.4578 36.54 44.7708 37.592 44.6248 38.632V38.635C44.3248 40.818 44.3698 43.076 44.9248 45.121C44.9318 45.145 44.9388 45.168 44.9468 45.191C45.0468 45.476 45.0028 45.791 44.8288 46.038C44.6508 46.289 44.3778 46.5 44.0698 46.5H3.95377C3.64577 46.5 3.37277 46.289 3.19377 46.038C3.01977 45.791 2.97577 45.476 3.07577 45.191C3.08377 45.168 3.09177 45.145 3.09777 45.121C3.65277 43.076 3.69777 40.818 3.39777 38.635C3.39777 38.634 3.39777 38.633 3.39777 38.632C3.25277 37.592 3.56477 36.54 4.25377 35.748C4.94377 34.955 5.94177 34.5 6.99277 34.5Z" fill="#FFC700"/>
<path fill-rule="evenodd" clip-rule="evenodd" d="M7 0.5C5.343 0.5 4 1.843 4 3.5V12.655C4 14.441 4.953 16.092 6.5 16.985L10.5 19.294C10.978 19.57 11.59 19.406 11.866 18.928C12.142 18.45 11.978 17.838 11.5 17.562L7.5 15.253C6.572 14.717 6 13.727 6 12.655V3.5C6 2.948 6.448 2.5 7 2.5C7.265 2.5 7.52 2.605 7.707 2.793C7.895 2.98 8 3.235 8 3.5V11.5C8 12.572 8.572 13.562 9.5 14.098L10.5 14.675C10.978 14.951 11.59 14.787 11.866 14.309C12.142 13.831 11.978 13.219 11.5 12.943L10.5 12.366C10.191 12.187 10 11.857 10 11.5V3.5C10 2.704 9.684 1.941 9.121 1.379C8.559 0.816002 7.796 0.5 7 0.5Z" fill="#FFC700"/>
<path fill-rule="evenodd" clip-rule="evenodd" d="M40.9995 0.5C40.2035 0.5 39.4405 0.816 38.8785 1.379C38.3155 1.941 37.9995 2.704 37.9995 3.5V11.5C37.9995 11.857 37.8085 12.187 37.4995 12.366L36.4995 12.943C36.0215 13.219 35.8575 13.831 36.1335 14.309C36.4095 14.787 37.0215 14.951 37.4995 14.675L38.4995 14.098C39.4275 13.562 39.9995 12.572 39.9995 11.5V3.5C39.9995 3.235 40.1045 2.98 40.2925 2.793C40.4795 2.605 40.7345 2.5 40.9995 2.5C41.5515 2.5 41.9995 2.948 41.9995 3.5V12.655C41.9995 13.727 41.4275 14.717 40.4995 15.253L36.4995 17.562C36.0215 17.838 35.8575 18.45 36.1335 18.928C36.4095 19.406 37.0215 19.57 37.4995 19.294L41.4995 16.985C43.0465 16.092 43.9995 14.441 43.9995 12.655V3.5C43.9995 1.843 42.6565 0.5 40.9995 0.5Z" fill="#FFC700"/>
</g>
<defs>
<clipPath id="clip0_63_97">
<rect width="48" height="48" fill="white" transform="translate(0 0.5)"/>
</clipPath>
</defs>
</svg>
