<svg width="512" height="513" viewBox="0 0 512 513" fill="none" xmlns="http://www.w3.org/2000/svg">
<path d="M316.844 467.96C301.976 467.96 300.748 447.46 298.888 416.432C296.828 382.14 294 335.172 269.8 315.372C259.884 307.256 252.844 307.248 242.916 315.372C218.708 335.172 215.896 382.14 213.84 416.432C211.98 447.46 210.748 467.956 195.888 467.956C182.316 467.956 179.684 445.908 175.32 409.376C172.416 385.044 169.124 357.468 162 340.024C160.58 336.544 159.104 333.016 157.6 329.448C141.696 291.34 123.66 248.14 144.68 208.072C160.076 178.7 201.68 174.904 233.008 186.264C248.091 191.72 264.609 191.72 279.692 186.264C311.012 174.912 352.612 178.696 368.02 208.068C389.036 248.128 371.008 291.32 355.1 329.428C353.612 333 352.136 336.532 350.7 340.02C343.572 357.464 340.28 385.044 337.376 409.376C333.044 445.916 330.4 467.96 316.844 467.96ZM199.524 192.384C180.7 192.384 163.056 198.904 155.32 213.644C136.92 248.728 153.8 289.16 168.692 324.844C170.196 328.436 171.663 331.988 173.092 335.5C180.832 354.448 184.228 382.884 187.224 407.968C189.104 423.728 191.56 444.324 194.788 452.768C194.908 453.07 195.12 453.326 195.392 453.503C195.665 453.679 195.985 453.767 196.31 453.753C196.634 453.74 196.947 453.626 197.204 453.427C197.46 453.228 197.649 452.955 197.744 452.644C200.064 445.424 201.068 428.644 201.844 415.748C204.032 379.236 207.044 329.228 235.312 306.1C241.232 301.212 248.67 298.538 256.348 298.538C264.026 298.538 271.464 301.212 277.384 306.1C305.656 329.228 308.66 379.224 310.848 415.732C311.62 428.596 312.624 445.296 315.016 452.592C315.121 452.896 315.317 453.159 315.577 453.348C315.838 453.536 316.149 453.639 316.471 453.644C316.792 453.649 317.107 453.555 317.372 453.375C317.638 453.194 317.842 452.936 317.956 452.636C321.156 444.124 323.604 423.652 325.476 407.976C328.472 382.888 331.876 354.452 339.604 335.504C341.04 331.992 342.528 328.432 344.028 324.828C358.912 289.16 375.788 248.736 357.396 213.66C345.588 191.156 310.696 187.812 283.796 197.564C266.073 203.976 246.663 203.976 228.94 197.564C219.504 194.165 209.554 192.413 199.524 192.384Z" fill="#FFC700"/>
<path d="M415.392 148.62C388.872 103.124 326.992 98.544 282.476 120.4C274.655 124.207 266.096 126.258 257.399 126.408C248.702 126.559 240.077 124.806 232.128 121.272C231.504 120.992 226.492 118.612 224.596 117.8C180.648 99 122.76 105.028 97.3522 148.62C62.7722 207.944 96.1522 292.668 130.272 353.292C142.896 375.74 148.956 405.468 154.3 431.692C162.268 470.792 169.82 507.864 198.528 507.864C200.656 507.855 202.78 507.668 204.876 507.304C226.116 503.724 230.196 464.748 234.92 419.616C238.36 386.732 243.076 341.696 256.376 341.696C269.676 341.696 274.376 386.732 277.828 419.616C282.548 464.748 286.628 503.724 307.868 507.304C341.868 513.02 349.916 473.528 358.444 431.704C363.788 405.472 369.844 375.744 382.468 353.304C416.576 292.668 449.968 207.944 415.392 148.62ZM372 347.412C358.448 371.5 352.192 402.212 346.672 429.304C337.832 472.688 331.336 499.112 309.852 495.476C297.6 493.412 293.052 450.04 289.752 418.372C284.8 370.792 280.488 329.7 256.376 329.7C232.264 329.7 227.976 370.792 222.984 418.372C219.672 450.04 215.132 493.412 202.876 495.476C181.432 499.076 174.9 472.676 166.076 429.3C160.556 402.204 154.3 371.496 140.748 347.412C108.164 289.516 76.0002 209.08 107.716 154.664C121.788 130.528 148.592 119.984 176.164 119.984C192.673 119.999 208.977 123.643 223.92 130.66C224.272 130.832 228.34 132.88 229.276 133.42C234.772 136.688 239.75 140.758 244.044 145.496C250.116 151.696 255.852 157.552 268.152 158.756C268.945 158.851 269.749 158.786 270.516 158.566C271.284 158.346 272 157.975 272.622 157.475C273.245 156.974 273.761 156.355 274.141 155.652C274.52 154.95 274.756 154.179 274.834 153.384C274.912 152.59 274.831 151.787 274.595 151.025C274.359 150.262 273.973 149.554 273.46 148.942C272.947 148.33 272.316 147.827 271.606 147.462C270.896 147.097 270.12 146.877 269.324 146.816C266.287 146.52 263.341 145.609 260.667 144.139C257.993 142.669 255.646 140.67 253.768 138.264C265.513 138.739 277.193 136.302 287.768 131.172C326.484 112.156 382.332 115.732 405.024 154.664C436.744 209.08 404.58 289.516 372 347.412Z" fill="#FFC700"/>
<path d="M417.74 6.856C413.653 3.117 408.249 1.15431 402.715 1.3996C397.181 1.64489 391.972 4.07807 388.232 8.164L354.44 45.1C351.435 48.3423 349.554 52.4658 349.075 56.8602C348.596 61.2545 349.545 65.6864 351.78 69.5C305.622 117.227 266.82 171.555 236.648 230.7C221.08 261.297 208.856 293.483 200.188 326.7C195.933 343.393 192.945 360.384 191.252 377.528C189.809 394.641 189.863 411.848 191.412 428.952C191.501 429.82 191.917 430.622 192.575 431.196C193.233 431.769 194.084 432.072 194.956 432.042C195.829 432.012 196.657 431.652 197.274 431.034C197.891 430.417 198.251 429.588 198.28 428.716V428.66C198.736 411.932 199.628 395.06 201.312 378.488C203.245 361.915 206.311 345.494 210.488 329.34C219.2 296.964 231.374 265.62 246.8 235.852C262.234 205.998 279.993 177.405 299.912 150.336C318.514 124.858 338.768 100.629 360.544 77.804C363.703 79.4231 367.225 80.2028 370.772 80.068C371.08 80.068 371.38 80.036 371.676 80.008C376.887 79.5667 381.739 77.1703 385.256 73.3L419.048 36.364C420.9 34.3409 422.336 31.9727 423.273 29.3947C424.209 26.8166 424.629 24.0793 424.508 21.339C424.386 18.5987 423.726 15.9092 422.565 13.4242C421.404 10.9391 419.764 8.70722 417.74 6.856ZM410.2 28.264L376.4 65.2C375.617 66.0797 374.667 66.7952 373.606 67.3047C372.544 67.8142 371.391 68.1076 370.215 68.1679C369.039 68.2282 367.863 68.0542 366.755 67.656C365.646 67.2578 364.628 66.6433 363.76 65.8482C362.891 65.0531 362.189 64.0934 361.694 63.0246C361.2 61.9559 360.922 60.7996 360.878 59.6227C360.834 58.4459 361.025 57.2721 361.439 56.1695C361.852 55.0669 362.481 54.0575 363.288 53.2L397.08 16.264C398.671 14.5247 400.888 13.4888 403.243 13.3841C405.598 13.2795 407.899 14.1147 409.638 15.706C411.377 17.2973 412.413 19.5143 412.518 21.8694C412.622 24.2245 411.791 26.5247 410.2 28.264Z" fill="#FFC700"/>
</svg>
