<svg width="512" height="513" viewBox="0 0 512 513" fill="none" xmlns="http://www.w3.org/2000/svg">
<path d="M192.612 192.5V181.96C192.612 179.988 191.829 178.096 190.434 176.702C189.04 175.307 187.148 174.524 185.176 174.524C183.204 174.524 181.313 175.307 179.918 176.702C178.524 178.096 177.74 179.988 177.74 181.96V192.5C177.74 194.472 178.524 196.364 179.918 197.758C181.313 199.153 183.204 199.936 185.176 199.936C187.148 199.936 189.04 199.153 190.434 197.758C191.829 196.364 192.612 194.472 192.612 192.5Z" fill="#FFC700"/>
<path d="M259.54 199.92C261.509 199.92 263.398 199.139 264.792 197.748C266.186 196.357 266.972 194.469 266.976 192.5V181.96C266.976 179.988 266.193 178.096 264.798 176.702C263.404 175.307 261.512 174.524 259.54 174.524C257.568 174.524 255.676 175.307 254.282 176.702C252.887 178.096 252.104 179.988 252.104 181.96V192.5C252.108 194.469 252.894 196.357 254.288 197.748C255.682 199.139 257.571 199.92 259.54 199.92Z" fill="#FFC700"/>
<path d="M222.344 256.568C229.695 256.542 236.853 254.221 242.821 249.929C248.788 245.637 253.266 239.588 255.628 232.628C255.919 231.756 256.036 230.835 255.972 229.918C255.907 229.001 255.662 228.106 255.252 227.283C254.841 226.461 254.272 225.727 253.578 225.124C252.884 224.521 252.078 224.061 251.206 223.77C250.334 223.479 249.413 223.362 248.496 223.427C247.579 223.491 246.684 223.736 245.861 224.146C245.039 224.557 244.305 225.126 243.702 225.82C243.1 226.514 242.639 227.32 242.348 228.192C240.973 232.38 238.309 236.027 234.736 238.61C231.164 241.193 226.866 242.581 222.458 242.575C218.049 242.569 213.756 241.169 210.191 238.576C206.626 235.982 203.972 232.328 202.608 228.136C202.316 227.258 201.853 226.447 201.246 225.75C200.638 225.052 199.899 224.482 199.07 224.072C198.241 223.662 197.339 223.42 196.416 223.361C195.493 223.301 194.567 223.426 193.692 223.726C192.817 224.027 192.011 224.497 191.319 225.111C190.628 225.725 190.064 226.47 189.662 227.303C189.26 228.136 189.027 229.041 188.977 229.964C188.926 230.888 189.059 231.812 189.368 232.684C191.713 239.591 196.145 245.599 202.052 249.878C207.96 254.156 215.05 256.494 222.344 256.568Z" fill="#FFC700"/>
<path d="M147.16 408.236C148.612 408.237 150.032 407.807 151.24 407.001C152.447 406.194 153.389 405.048 153.945 403.707C154.501 402.365 154.646 400.889 154.363 399.465C154.08 398.041 153.381 396.733 152.354 395.706C151.328 394.679 150.019 393.98 148.595 393.697C147.171 393.414 145.695 393.559 144.353 394.115C143.012 394.671 141.866 395.613 141.06 396.821C140.253 398.028 139.823 399.448 139.824 400.9C139.824 402.846 140.597 404.712 141.973 406.087C143.349 407.463 145.215 408.236 147.16 408.236Z" fill="#FFC700"/>
<path d="M222.36 128.508C226.411 128.508 229.696 125.224 229.696 121.172C229.696 117.12 226.411 113.836 222.36 113.836C218.308 113.836 215.024 117.12 215.024 121.172C215.024 125.224 218.308 128.508 222.36 128.508Z" fill="#FFC700"/>
<path d="M402.22 346.528H365.54C360.136 346.539 354.816 347.865 350.04 350.392C337.298 328.598 316.912 312.317 292.84 304.708C285.952 295.84 276.541 289.264 265.844 285.848C279.118 278.537 290.307 267.96 298.353 255.118C306.399 242.276 311.035 227.594 311.824 212.46C318.87 211.625 325.352 208.192 330.002 202.833C334.653 197.474 337.138 190.574 336.972 183.48V171.456C337.004 168 335.972 164.618 334.016 161.768C332.061 158.918 329.276 156.738 326.04 155.524V137.524C327.159 136.446 328.051 135.154 328.663 133.725C329.274 132.295 329.593 130.758 329.6 129.204V113.1C329.591 110.239 328.518 107.483 326.591 105.367C324.664 103.252 322.02 101.928 319.172 101.652C312.3 84.8717 300.594 70.5133 285.542 60.401C270.491 50.2888 252.773 44.8793 234.64 44.86H210.08C191.946 44.88 174.227 50.2906 159.176 60.4044C144.124 70.5181 132.419 84.8783 125.548 101.66C122.701 101.936 120.058 103.259 118.131 105.372C116.205 107.486 115.131 110.24 115.12 113.1V129.22C115.126 130.764 115.445 132.29 116.057 133.708C116.669 135.125 117.561 136.404 118.68 137.468V155.524C115.444 156.738 112.659 158.918 110.704 161.768C108.748 164.618 107.716 168 107.748 171.456V183.48C107.579 190.6 110.083 197.524 114.766 202.89C119.449 208.255 125.971 211.672 133.048 212.468C134.219 227.522 139.049 242.062 147.118 254.825C155.187 267.587 166.251 278.186 179.348 285.7C168.456 289.068 158.863 295.702 151.868 304.704C132.117 310.977 114.735 323.098 102.022 339.463C89.3085 355.828 81.8622 375.667 80.668 396.356L76.428 460.676C76.3645 461.632 76.498 462.591 76.8202 463.493C77.1425 464.395 77.6466 465.222 78.3014 465.921C78.9562 466.621 79.7477 467.178 80.6268 467.559C81.5059 467.94 82.4539 468.136 83.412 468.136C256.064 468.104 242.52 468.136 363.412 468.136C368.074 468.14 372.585 466.485 376.138 463.466C379.69 460.447 382.052 456.262 382.8 451.66L383.868 445.212L384.932 451.66C385.691 456.256 388.055 460.434 391.603 463.452C395.151 466.471 399.654 468.134 404.312 468.146C408.97 468.159 413.482 466.52 417.046 463.521C420.61 460.521 422.996 456.356 423.78 451.764L435.096 385.516C435.914 380.729 435.677 375.821 434.402 371.135C433.127 366.449 430.845 362.098 427.714 358.386C424.583 354.673 420.68 351.689 416.277 349.641C411.874 347.592 407.076 346.53 402.22 346.528ZM238.368 380.064L237.28 370.464L237.936 369.264L240.924 373.404L238.368 380.064ZM222.484 421.2L218.112 409.94L217.312 407.84L220.912 376.028H223.816L227.48 408.264L222.484 421.2ZM222.36 347.728L228.888 356.768L225.964 362.02H218.8L215.856 356.76L222.36 347.728ZM230.896 335.632L253.136 302.684L265.2 310.528L246.864 357.752L230.896 335.632ZM197.852 357.748L179.524 310.548L191.6 302.684L213.844 335.632L197.852 357.748ZM222.36 323.26L203.296 295.02C208.49 296.204 213.784 296.899 219.108 297.096C226.585 297.366 234.067 296.695 241.376 295.096L222.36 323.26ZM203.892 373.3L206.8 369.272L207.452 370.436L206.4 379.756L203.892 373.3ZM141.648 146.792C141.79 149.352 141.656 151.92 141.248 154.452C140.284 154.6 139.248 154.5 132.7 154.532V140.82H141.864C141.69 142.806 141.618 144.799 141.648 146.792ZM129.12 126.82V115.54H183.46C182.86 119.276 182.86 123.084 183.46 126.82H129.12ZM197.008 121.172C197.008 116.158 198.495 111.256 201.281 107.087C204.066 102.918 208.026 99.6686 212.658 97.7498C217.291 95.831 222.388 95.3289 227.306 96.3071C232.224 97.2853 236.741 99.6999 240.287 103.245C243.832 106.791 246.247 111.308 247.225 116.226C248.203 121.144 247.701 126.241 245.782 130.874C243.863 135.506 240.614 139.466 236.445 142.251C232.276 145.037 227.374 146.524 222.36 146.524C215.639 146.517 209.194 143.843 204.442 139.09C199.689 134.338 197.015 127.893 197.008 121.172ZM261.26 115.54H315.6V126.82H261.256C261.859 123.084 261.861 119.276 261.26 115.54ZM312.06 140.82V154.532C305.152 154.504 304.308 154.6 303.528 154.46C303.151 152.551 303.008 150.604 303.1 148.66C303.169 146.045 303.101 143.428 302.896 140.82H312.06ZM322.992 183.48C323.12 186.836 322.098 190.136 320.096 192.832C318.093 195.528 315.23 197.46 311.98 198.308V168.54H320.78C321.98 168.54 322.972 169.88 322.972 171.464L322.992 183.48ZM210.08 58.86H234.64C248.983 58.8766 263.039 62.8756 275.243 70.4114C287.446 77.9472 297.317 88.7237 303.756 101.54H256.4C252.961 95.5474 248.001 90.5685 242.022 87.1061C236.042 83.6437 229.255 81.8205 222.346 81.8205C215.437 81.8205 208.65 83.6437 202.67 87.1061C196.691 90.5685 191.731 95.5474 188.292 101.54H140.964C147.402 88.7232 157.273 77.9461 169.477 70.4102C181.68 62.8743 195.737 58.8756 210.08 58.86ZM121.748 183.48V171.456C121.748 169.856 122.748 168.532 123.932 168.532H132.76V198.3C129.511 197.453 126.649 195.522 124.647 192.827C122.645 190.132 121.622 186.835 121.748 183.48ZM146.76 205.58V167.324C155.352 163.852 155.704 155.324 155.648 146.7C155.58 144.735 155.684 142.767 155.96 140.82H188.316C191.757 146.808 196.716 151.782 202.693 155.241C208.67 158.701 215.454 160.522 222.36 160.522C229.266 160.522 236.05 158.701 242.027 155.241C248.004 151.782 252.963 146.808 256.404 140.82H288.756C289.079 143.42 289.187 146.042 289.08 148.66C289.08 153.136 289.1 163.696 297.96 167.296V207.58C297.963 217.74 295.916 227.796 291.943 237.147C287.97 246.498 282.152 254.951 274.837 262.002C267.521 269.052 258.859 274.555 249.368 278.181C239.878 281.807 229.753 283.481 219.6 283.104C179.44 281.668 146.76 246.9 146.76 205.58ZM94.628 397.224C95.5052 381.892 100.361 367.054 108.718 354.17C117.074 341.286 128.643 330.801 142.284 323.748C140.887 328.675 140.175 333.771 140.168 338.892V371.916C133.068 373.629 126.843 377.887 122.672 383.883C118.501 389.878 116.674 397.195 117.537 404.448C118.4 411.701 121.892 418.385 127.353 423.235C132.814 428.085 139.864 430.763 147.168 430.763C154.472 430.763 161.522 428.085 166.983 423.235C172.444 418.385 175.936 411.701 176.799 404.448C177.662 397.195 175.835 389.878 171.664 383.883C167.493 377.887 161.268 373.629 154.168 371.916V338.9C154.165 331.122 156.345 323.5 160.46 316.9C162.428 316.384 164.42 315.928 166.46 315.548L215.992 443.148C216.503 444.465 217.4 445.596 218.565 446.394C219.73 447.192 221.11 447.619 222.522 447.619C223.934 447.619 225.314 447.192 226.479 446.394C227.644 445.596 228.541 444.465 229.052 443.148C315.728 218.548 257.308 369.884 278.32 315.456C280.32 315.828 282.268 316.256 284.208 316.78C288.361 323.41 290.559 331.077 290.552 338.9V362.928C284.892 364.361 279.816 367.516 276.028 371.959C272.239 376.402 269.924 381.912 269.404 387.728L265.576 429.216C265.486 430.185 265.599 431.163 265.908 432.086C266.217 433.009 266.716 433.858 267.372 434.577C268.028 435.297 268.826 435.871 269.717 436.264C270.608 436.657 271.57 436.86 272.544 436.86H280.144C282.001 436.868 283.784 436.139 285.103 434.832C286.422 433.526 287.168 431.748 287.176 429.892C287.184 428.035 286.455 426.252 285.148 424.933C283.842 423.614 282.065 422.868 280.208 422.86L283.332 389.004C283.653 385.453 285.291 382.15 287.923 379.745C290.555 377.34 293.992 376.006 297.558 376.006C301.124 376.006 304.561 377.34 307.193 379.745C309.825 382.15 311.463 385.453 311.784 389.004L314.88 422.856C313.023 422.862 311.246 423.606 309.937 424.923C308.629 426.24 307.898 428.024 307.904 429.88C307.91 431.737 308.654 433.514 309.971 434.823C311.288 436.131 313.071 436.862 314.928 436.856H322.56C323.533 436.855 324.495 436.652 325.385 436.26C326.275 435.867 327.073 435.293 327.729 434.575C328.385 433.856 328.884 433.009 329.194 432.087C329.505 431.165 329.62 430.189 329.532 429.22L325.74 387.7C325.21 381.88 322.885 376.368 319.088 371.925C315.29 367.483 310.207 364.329 304.54 362.9V338.9C304.531 333.791 303.822 328.708 302.432 323.792C317.948 331.803 330.728 344.252 339.144 359.552C336.319 363.194 334.282 367.383 333.161 371.854C332.041 376.325 331.862 380.98 332.636 385.524L343.952 451.772C344.111 452.576 344.321 453.37 344.58 454.148H90.876L94.628 397.224ZM147.16 385.056C150.294 385.056 153.357 385.985 155.962 387.726C158.568 389.467 160.599 391.942 161.798 394.837C162.997 397.732 163.311 400.918 162.7 403.991C162.088 407.064 160.579 409.888 158.363 412.103C156.148 414.319 153.324 415.828 150.251 416.44C147.178 417.051 143.992 416.737 141.097 415.538C138.202 414.339 135.727 412.308 133.986 409.702C132.245 407.097 131.316 404.034 131.316 400.9C131.32 396.699 132.991 392.672 135.961 389.701C138.932 386.731 142.959 385.06 147.16 385.056ZM421.312 383.156L409.992 449.412C409.766 450.741 409.076 451.946 408.045 452.814C407.014 453.682 405.708 454.157 404.36 454.153C403.013 454.149 401.71 453.667 400.684 452.793C399.657 451.919 398.974 450.71 398.756 449.38L394.02 420.712C393.625 418.308 392.388 416.122 390.531 414.545C388.674 412.968 386.317 412.102 383.88 412.102C381.443 412.102 379.086 412.968 377.229 414.545C375.372 416.122 374.135 418.308 373.74 420.712L369 449.38C368.778 450.708 368.094 451.915 367.067 452.787C366.041 453.659 364.739 454.139 363.392 454.142C362.045 454.146 360.741 453.672 359.71 452.806C358.679 451.939 357.988 450.735 357.76 449.408L346.444 383.156C345.971 380.377 346.11 377.528 346.851 374.808C347.593 372.088 348.919 369.562 350.737 367.408C352.556 365.253 354.822 363.521 357.379 362.333C359.936 361.145 362.721 360.529 365.54 360.528H402.22C405.039 360.528 407.825 361.143 410.382 362.331C412.938 363.52 415.205 365.251 417.023 367.406C418.841 369.561 420.167 372.087 420.908 374.807C421.649 377.528 421.787 380.377 421.312 383.156Z" fill="#FFC700"/>
<path d="M396.26 370.5H371.496C369.64 370.5 367.859 371.238 366.546 372.55C365.234 373.863 364.496 375.643 364.496 377.5C364.496 379.357 365.234 381.137 366.546 382.45C367.859 383.762 369.64 384.5 371.496 384.5H396.26C398.117 384.5 399.897 383.762 401.21 382.45C402.523 381.137 403.26 379.357 403.26 377.5C403.26 375.643 402.523 373.863 401.21 372.55C399.897 371.238 398.117 370.5 396.26 370.5Z" fill="#FFC700"/>
</svg>
