<svg width="512" height="513" viewBox="0 0 512 513" fill="none" xmlns="http://www.w3.org/2000/svg">
<g clip-path="url(#clip0_63_72)">
<path d="M332.485 284.472C325.627 277.728 319.753 269.989 315.077 261.441C311.845 255.533 303.337 255.531 300.105 261.441C291.147 277.821 278.394 290.738 262.201 299.832C254.028 304.423 255.323 312.67 260.834 315.683C277.441 324.766 291.022 338.346 300.105 354.953C303.335 360.861 311.843 360.863 315.077 354.953C324.035 338.573 336.788 325.656 352.98 316.561C361.153 311.971 359.858 303.724 354.347 300.711C351.921 299.383 349.567 297.949 347.274 296.434C351.403 279.915 353.499 262.046 353.499 243.211C353.499 236.368 351.887 230.097 348.769 224.462C346.49 220.34 341.299 218.848 337.173 221.125C333.049 223.406 331.555 228.598 333.836 232.722C335.684 236.061 336.435 239.422 336.435 243.211C336.435 257.696 335.105 271.515 332.485 284.472ZM307.576 334.828C300.201 324.538 291.202 315.545 280.909 308.176C291.294 300.831 300.221 291.934 307.608 281.568C314.99 291.868 324.156 300.974 334.275 308.22C323.889 315.564 314.962 324.462 307.576 334.828Z" fill="#FFC700"/>
<path d="M497.252 63.2453L470.333 31.9719C467.259 28.3989 461.871 27.9968 458.3 31.0706C454.728 34.1455 454.325 39.5326 457.4 43.1035L465.293 52.2737L426.053 86.0493L408.578 65.7485C405.505 62.1756 400.116 61.7735 396.546 64.8473C392.974 67.9222 392.571 73.3093 395.645 76.8801L397.151 78.6293L305.253 157.732C303.268 159.441 302.178 161.966 302.295 164.581L303.502 191.537L285.162 207.322C255.312 207.482 234.146 197.367 216.587 187.809C212.448 185.556 207.266 187.086 205.014 191.223C202.761 195.362 204.29 200.544 208.429 202.797C225.052 211.845 243.504 220.291 266.647 223.26L236.92 248.848C230.928 254.006 234.616 263.847 242.489 263.847C244.46 263.847 246.441 263.168 248.051 261.781L314.633 204.47C343.142 210.076 341.569 209.836 342.756 209.836C344.78 209.836 346.76 209.114 348.322 207.77L369.468 189.569V357.024C369.468 367.938 360.704 377.378 349.081 378.981C338.306 380.468 325.685 381.762 311.566 382.831C306.868 383.187 303.346 387.284 303.702 391.983C304.058 396.689 308.166 400.204 312.854 399.847C327.321 398.752 340.293 397.42 351.412 395.885C371.434 393.125 386.532 376.417 386.532 357.023V174.881L414.422 150.873C417.994 147.798 418.397 142.411 415.322 138.84C412.248 135.268 406.86 134.865 403.289 137.939L340.331 192.132L320.432 188.22L319.525 167.961L408.281 91.5634L441.725 130.418C443.413 132.379 445.797 133.384 448.196 133.384C455.411 133.384 459.442 124.843 454.659 119.285L437.183 98.9834L476.424 65.2078L484.318 74.378C486.005 76.3394 488.389 77.3441 490.787 77.3441C497.991 77.3441 502.045 68.8138 497.252 63.2453Z" fill="#FFC700"/>
<path d="M69.5614 395.886C84.4419 397.939 101.888 399.407 102.885 399.407C107.279 399.407 111.011 396.035 111.379 391.577C111.767 386.881 108.274 382.758 103.578 382.371C91.8022 381.398 81.1431 380.258 71.8928 378.981C60.2706 377.378 51.5057 367.938 51.5067 357.024V160.249C51.5067 7.49979 257.972 -23.731 338.599 71.2807C341.648 74.874 347.033 75.3144 350.626 72.2662C354.219 69.218 354.66 63.833 351.61 60.2408C261.894 -45.4866 34.4419 -10.1101 34.4419 160.249V357.024C34.4408 376.418 49.539 393.126 69.5614 395.886Z" fill="#FFC700"/>
<path d="M362.861 460.528L308.107 441.649C288.018 434.723 273.082 417.592 268.715 397.071C274.867 394.154 280.848 390.754 286.604 386.871C290.511 384.235 291.541 378.933 288.907 375.027C286.272 371.12 280.968 370.088 277.062 372.725C199.381 425.122 84.5412 376.124 84.5412 243.212V219.142C84.5412 212.417 87.7664 206.042 93.1707 202.088C94.0015 201.48 94.826 200.898 95.6515 200.312C107.357 208.85 117.065 219.861 124.08 232.689C127.311 238.596 135.819 238.598 139.053 232.689C148.011 216.309 160.763 203.392 176.956 194.297C185.137 189.702 183.829 181.457 178.323 178.447C161.716 169.364 148.137 155.785 139.054 139.176C135.822 133.269 127.314 133.267 124.082 139.176C115.122 155.559 102.37 168.477 86.1773 177.569C80.1939 180.929 79.2948 185.761 81.2829 189.73C72.599 196.937 67.4774 207.767 67.4774 219.142V243.212C67.4774 308.222 93.6314 369.28 152.269 397.04C147.91 417.575 132.969 434.718 112.871 441.649L58.1163 460.528C38.385 467.333 22.5435 481.447 13.5141 500.275C11.4759 504.523 13.2688 509.621 17.5168 511.659C21.7564 513.691 26.8566 511.917 28.9002 507.656C35.9426 492.974 48.2944 481.967 63.6794 476.662L118.434 457.782C143.271 449.218 161.968 428.492 168.301 403.429C195.776 412.413 225.166 412.432 252.682 403.441C259.018 428.498 277.713 449.219 302.546 457.783L357.3 476.662C372.685 481.967 385.037 492.974 392.08 507.656C394.107 511.884 399.194 513.706 403.463 511.659C407.712 509.62 409.504 504.524 407.466 500.275C398.432 481.448 382.593 467.333 362.861 460.528ZM131.58 159.301C138.956 169.592 147.953 178.586 158.247 185.953C147.864 193.299 138.935 202.197 131.55 212.562C124.174 202.273 115.178 193.281 104.882 185.911C115.265 178.565 124.195 169.667 131.58 159.301Z" fill="#FFC700"/>
<path d="M190.379 309.923C185.667 309.923 181.847 313.743 181.847 318.456V323.649H176.654C171.942 323.649 168.122 327.469 168.122 332.181C168.122 336.893 171.942 340.713 176.654 340.713H181.847V345.906C181.847 350.619 185.667 354.439 190.379 354.439C195.092 354.439 198.912 350.619 198.912 345.906V340.713H204.105C208.817 340.713 212.637 336.893 212.637 332.181C212.637 327.469 208.817 323.649 204.105 323.649H198.912V318.456C198.912 313.743 195.093 309.923 190.379 309.923Z" fill="#FFC700"/>
</g>
<defs>
<clipPath id="clip0_63_72">
<rect width="512" height="512" fill="white" transform="translate(0 0.5)"/>
</clipPath>
</defs>
</svg>
