<svg width="401" height="401" viewBox="0 0 401 401" fill="none" xmlns="http://www.w3.org/2000/svg">
<g clip-path="url(#clip0_63_79)">
<path d="M344.879 31.471C327.039 11.5 302.484 0.5 275.737 0.5C254.791 0.5 232.358 12.877 215.977 21.914C210.552 24.906 202.454 29.808 200.066 29.809C197.689 29.81 189.628 24.92 184.226 21.93C167.88 12.887 145.494 0.5 124.401 0.5C97.6542 0.5 73.0992 11.5 55.2602 31.471C38.3082 50.451 28.9722 75.43 28.9722 101.803C28.9722 118.791 32.0942 138.749 36.9892 161.409C41.5942 182.729 56.1942 200.678 87.0502 214.259C96.3712 218.363 113.094 221.564 116.094 224.564C119.699 228.169 123.552 241.189 123.552 241.189C123.552 241.189 124.427 244.257 123.14 244.257C116.018 244.257 110.224 250.052 110.224 257.173C110.224 264.294 116.018 270.089 123.14 270.089C123.14 270.089 129.355 270.089 131.427 270.089C133.052 270.089 133.581 271.759 133.581 271.759L138.053 285.564C138.053 285.564 138.428 288.097 135.453 288.097C128.332 288.097 122.539 293.89 122.539 301.011C122.539 308.132 128.332 313.927 135.453 313.927C135.453 313.927 143.122 313.927 145.678 313.927C147.553 313.927 148.179 315.439 148.179 315.439L153.38 331C153.38 331 153.678 331.936 152.553 331.936C151.383 331.936 147.871 331.936 147.871 331.936C140.748 331.936 134.955 337.731 134.955 344.852C134.955 351.975 140.748 357.768 147.871 357.768C147.871 357.768 157.539 357.768 160.762 357.768C162.512 357.768 162.784 359.141 162.784 359.141L170.758 382.996L170.805 383.121C175.562 394.744 185.19 400.641 199.422 400.641H200.213C214.444 400.641 224.071 394.745 228.862 383.036C228.862 383.036 234.842 364.813 237.052 358.817C237.49 357.628 238.302 357.768 238.302 357.768H252.268C259.389 357.768 265.183 351.975 265.183 344.852C265.183 337.731 261.677 331.936 252.268 331.936C250.287 331.936 248.338 331.942 247.49 331.942C246.177 331.942 246.99 329.692 246.99 329.692L251.74 315.379C251.74 315.379 251.99 313.93 253.366 313.93C256.195 313.93 264.684 313.93 264.684 313.93C271.805 313.93 277.599 308.135 277.599 301.014C277.599 293.894 272.423 288.101 265.302 288.101C263.787 288.101 263.26 288.15 262.677 288.15C261.115 288.15 261.989 286.379 261.989 286.379C261.989 286.379 265.37 275.235 266.801 270.941C267.114 270.003 268.114 270.091 268.114 270.091H276.996C284.117 270.091 289.91 264.296 289.91 257.175C289.91 250.054 284.117 244.259 276.996 244.259C275.864 244.259 276.076 242.765 276.26 242.025C277.427 237.316 279.608 227.63 283.76 224.566C287.682 221.671 303.481 218.275 312.602 214.261C342.793 200.97 358.593 180.9 362.563 162.632C367.582 139.541 371.167 118.652 371.167 101.804C371.168 75.43 361.832 50.454 344.879 31.471ZM213.749 376.984C210.924 383.828 202.37 384.359 199.817 384.359C197.269 384.359 188.752 383.83 185.904 377.035L179.762 358.619C179.762 358.619 179.615 357.765 180.803 357.765C190.667 357.765 209.889 357.765 219.583 357.765C220.271 357.765 220.124 358.161 220.124 358.161L213.749 376.984ZM228.573 331.934C214.349 331.934 186.011 331.934 171.677 331.934C170.802 331.934 170.614 331.065 170.614 331.065L165.079 314.59C165.079 314.59 164.989 313.928 166.114 313.928C183.363 313.928 217.38 313.928 234.468 313.928C235.114 313.928 234.948 314.405 234.948 314.405L229.109 331.634C229.112 331.633 228.948 331.934 228.573 331.934ZM244.136 287.482C244.136 287.482 243.99 288.097 243.344 288.097C237.183 288.097 177.684 288.097 157.136 288.097C156.219 288.097 156.011 287.523 156.011 287.523L150.591 271.135C150.591 271.135 150.24 270.064 151.615 270.064C178.49 270.064 224.724 270.089 249.094 270.089C249.969 270.089 249.734 270.765 249.734 270.765L244.136 287.482ZM256.928 244.253C228.361 244.253 142.97 244.19 142.97 244.19C142.97 244.19 142.095 244.19 141.678 243.315C140.476 240.793 138.136 234.524 137.189 230.946C136.664 228.963 138.553 229.565 138.553 229.565C158.524 233.387 177.821 234.916 199.826 234.916C222.146 234.916 242.265 233.244 262.47 229.315C262.47 229.315 263.887 229.065 263.557 229.968C262.459 232.977 260.249 239.615 259.241 242.668C258.915 243.648 257.928 244.253 256.928 244.253ZM348.261 157.566C347.57 160.578 345.366 166.073 344.225 169.161C339.964 180.693 325.452 191.071 306.138 199.575C296.222 203.94 285.007 207.663 272.806 210.639L270.678 211.153C249.15 216.202 224.65 218.87 199.825 218.87C175.691 218.87 151.816 216.341 130.718 211.552L128.643 211.075C115.759 208.034 103.943 204.167 93.5142 199.577C74.5842 191.243 59.1892 179.67 54.6152 168.536C53.1462 164.959 50.6772 156.317 50.6772 156.317C45.7462 135.296 45.0162 117.044 45.0162 101.805C45.0162 59.895 74.7102 16.547 124.4 16.547C137.296 16.547 154.282 22.449 169.842 32.336C172.114 33.781 175.355 36.272 178.488 38.682C179.733 39.639 180.961 40.582 182.106 41.446C185.821 44.225 190.841 47.864 196.721 51.325C199.814 53.151 202.628 54.77 205.742 56.093C218.48 61.499 231.986 64.241 245.884 64.241C260.065 64.241 277.483 60.796 277.243 58.827C277.003 56.858 247.97 56.858 228.639 51.737C220.922 49.694 212.177 46.382 212.177 44.567C212.177 42.632 214.906 41.114 217.048 39.835C218.916 38.718 221.035 37.452 223.736 35.962C238.587 27.769 258.924 16.548 275.736 16.548C325.426 16.548 355.12 59.896 355.12 101.806C355.121 116.836 353.147 136.288 348.261 157.566Z" fill="#FFC700"/>
</g>
<defs>
<clipPath id="clip0_63_79">
<rect width="400.141" height="400.141" fill="white" transform="translate(0 0.5)"/>
</clipPath>
</defs>
</svg>
