<svg width="512" height="513" viewBox="0 0 512 513" fill="none" xmlns="http://www.w3.org/2000/svg">
<path d="M458.667 224.5H449.792C455.611 207.318 458.608 189.307 458.667 171.167C458.667 97.6946 418.795 53.8333 352 53.8333C317.448 54.7892 283.842 65.3289 254.933 84.276C226.965 69.4173 193.909 53.8333 160 53.8333C93.2052 53.8333 53.3332 97.6946 53.3332 171.167C53.3918 189.307 56.3889 207.318 62.2078 224.5H53.3332C50.5042 224.5 47.7911 225.624 45.7907 227.624C43.7903 229.625 42.6665 232.338 42.6665 235.167C42.6665 237.996 43.7903 240.709 45.7907 242.709C47.7911 244.71 50.5042 245.833 53.3332 245.833H70.3998C75.9145 258.303 82.2078 270.153 88.4372 281.833C102.049 304.21 111.87 328.682 117.504 354.26C124.006 391.518 138.935 426.798 161.152 457.407C163.936 461.599 166.485 465.407 168.619 468.937C170.754 472.478 173.772 475.405 177.376 477.431C180.98 479.458 185.049 480.515 189.184 480.5C195.586 480.492 201.724 477.945 206.251 473.417C210.778 468.89 213.325 462.753 213.333 456.351V384.5C213.333 373.184 217.828 362.332 225.83 354.33C233.832 346.329 244.684 341.833 256 341.833C267.316 341.833 278.168 346.329 286.17 354.33C294.171 362.332 298.667 373.184 298.667 384.5V456.351C298.675 462.753 301.222 468.89 305.749 473.417C310.276 477.945 316.414 480.492 322.816 480.5C326.951 480.518 331.021 479.462 334.626 477.435C338.231 475.409 341.248 472.48 343.381 468.937C345.515 465.407 348.085 461.599 350.848 457.407C373.056 426.795 387.981 391.516 394.485 354.26C400.124 328.683 409.945 304.212 423.552 281.833C429.867 270.153 436.107 258.303 441.6 245.833H458.667C461.495 245.833 464.209 244.71 466.209 242.709C468.209 240.709 469.333 237.996 469.333 235.167C469.333 232.338 468.209 229.625 466.209 227.624C464.209 225.624 461.495 224.5 458.667 224.5ZM404.757 271.796C390.035 296.195 379.467 322.869 373.483 350.729C367.496 385.022 353.689 417.474 333.131 445.567C330.155 450.025 327.456 454.1 325.163 457.823C324.812 458.285 324.33 458.631 323.779 458.815C323.229 458.998 322.636 459.012 322.078 458.853C321.52 458.693 321.023 458.369 320.652 457.923C320.281 457.477 320.054 456.928 320 456.351V384.5C320 367.526 313.257 351.247 301.255 339.245C289.252 327.243 272.974 320.5 256 320.5C239.026 320.5 222.747 327.243 210.745 339.245C198.743 351.247 192 367.526 192 384.5V456.351C191.95 456.932 191.725 457.485 191.354 457.935C190.983 458.386 190.485 458.713 189.924 458.874C189.363 459.034 188.766 459.021 188.213 458.835C187.66 458.649 187.177 458.3 186.827 457.833C184.544 454.089 181.845 450.036 178.88 445.577C158.313 417.488 144.501 385.035 138.517 350.74C132.533 322.879 121.964 296.205 107.243 271.807C102.603 263.103 98.0692 254.527 93.8878 245.844H170.667V256.511C170.667 267.827 175.162 278.679 183.163 286.681C191.165 294.682 202.017 299.177 213.333 299.177H298.667C309.982 299.177 320.835 294.682 328.836 286.681C336.838 278.679 341.333 267.827 341.333 256.511V245.833H418.133C413.931 254.516 409.408 263.092 404.757 271.796ZM192 256.5V213.833C192 208.175 194.247 202.749 198.248 198.748C202.249 194.748 207.675 192.5 213.333 192.5H298.667C304.324 192.5 309.751 194.748 313.751 198.748C317.752 202.749 320 208.175 320 213.833V256.5C320 262.158 317.752 267.584 313.751 271.585C309.751 275.586 304.324 277.833 298.667 277.833H213.333C207.675 277.833 202.249 275.586 198.248 271.585C194.247 267.584 192 262.158 192 256.5ZM427.349 224.5H341.333V213.833C341.333 202.517 336.838 191.665 328.836 183.663C320.835 175.662 309.982 171.167 298.667 171.167H213.333C202.017 171.167 191.165 175.662 183.163 183.663C175.162 191.665 170.667 202.517 170.667 213.833V224.5H84.6612C78.1168 207.477 74.7299 189.404 74.6665 171.167C74.6665 110.153 105.771 75.1666 160 75.1666C193.344 75.1666 228.341 94.0893 256.48 109.3C268.896 116.552 281.877 122.79 295.296 127.956C297.983 128.85 300.916 128.64 303.448 127.371C305.981 126.103 307.906 123.881 308.8 121.193C309.694 118.506 309.484 115.573 308.215 113.041C306.947 110.508 304.725 108.583 302.037 107.689C293.377 104.466 284.982 100.572 276.928 96.0413C299.866 83.0437 325.645 75.8758 352 75.1666C406.229 75.1666 437.333 110.153 437.333 171.167C437.268 189.403 433.885 207.475 427.349 224.5Z" fill="#FFC700"/>
</svg>
