<svg width="512" height="513" viewBox="0 0 512 513" fill="none" xmlns="http://www.w3.org/2000/svg">
<g clip-path="url(#clip0_63_8)">
<path d="M503.916 237.148C498.77 227.484 487.134 218.272 475.461 221.008C482.121 181.189 489.352 124.681 488.815 100.33C488.161 70.7087 459.178 69.6056 445.248 69.0756C437.645 68.7861 412.167 68.7861 404.563 69.0756C394.488 69.4589 376.542 70.1497 367.133 81.7074C357.298 72.813 341.542 72.2071 332.345 71.8577C324.549 71.5612 299.454 71.5612 291.659 71.8577C282.038 72.224 265.24 72.8679 255.551 82.9901C245.862 72.8689 229.062 72.224 219.442 71.8577C211.647 71.5602 186.55 71.5612 178.756 71.8577C169.56 72.2081 153.803 72.814 143.968 81.7074C134.559 70.1497 116.614 69.4589 106.539 69.0756C98.7439 68.7791 73.6479 68.7791 65.8526 69.0756C51.9241 69.6056 22.941 70.7077 22.2861 100.33C21.7361 125.24 28.9055 182.662 35.2473 220.83C23.8663 219.064 13.1302 227.663 8.08004 237.148C2.66755 247.317 -0.051679 282.231 -0.00176662 340.922C0.0152036 360.952 10.4549 378.824 31.0268 394.039C65.8097 419.765 131.028 437.416 209.961 442.465C279.372 446.906 352.462 443.261 419.347 422.84C428.606 420.014 424.234 405.693 414.976 408.519C360.616 425.114 284.332 432.219 210.917 427.521C134.781 422.651 72.46 406.059 39.9311 382C23.3822 369.761 14.9849 355.936 14.9719 340.909C14.93 291.639 16.9664 263.538 19.3463 251.012C21.8329 257.99 25.7889 264.535 30.6754 270.09C37.0671 277.359 48.3124 267.469 41.9196 260.201C39.6716 257.646 27.0667 237.415 32.9384 235.869C34.0005 235.589 36.7297 237.004 37.8677 239.166C51.7873 256.632 78.3576 260.471 98.7488 254.445C120.368 248.056 130.125 232.597 134.527 211.672C136.289 203.287 148.826 203.488 150.391 211.982C152.173 221.648 153.884 229.935 155.338 235.951C165.07 276.206 236.114 274.998 245.059 234.799C246.456 228.516 248.123 220.087 249.876 210.425C251.086 203.754 261.734 203.335 263.02 210.425C264.767 220.054 266.432 228.483 267.837 234.799C276.779 274.986 347.817 276.24 357.557 235.952C359.012 229.936 360.723 221.648 362.505 211.983C364.011 203.81 376.497 202.765 378.369 211.674C383.025 233.802 394.009 249.856 417.261 255.358C435.274 259.621 453.9 256.107 466.809 246.61C469.365 246.003 477.381 234.149 479.957 235.87C480.863 236.483 482.279 241.89 476.597 252.187C470.73 262.818 461.005 270.444 449.213 273.658C433.955 277.818 416.1 274.516 398.936 264.362C373.783 249.482 359.646 260.262 347.169 269.772C337.999 276.762 328.517 283.99 312.713 283.991C293.666 283.992 284.929 277.636 277.22 272.028C262.691 261.457 250.206 261.457 235.676 272.028C227.968 277.636 219.234 283.991 200.189 283.991C200.188 283.991 200.185 283.991 200.183 283.991C184.379 283.99 174.898 276.763 165.728 269.772C153.251 260.261 139.109 249.483 113.962 264.362C101.022 272.015 87.6304 275.821 75.2331 275.385C65.5631 275.033 65.0231 290.005 74.6991 290.349C89.9763 290.893 106.176 286.363 121.586 277.248C138.056 267.505 144.659 272.539 156.651 281.679C166.752 289.38 179.323 298.962 200.182 298.963H200.19C224.103 298.963 235.884 290.393 244.485 284.135C253.842 277.328 258.893 277.21 268.412 284.135C277.014 290.394 288.795 298.965 312.714 298.963C333.575 298.962 346.145 289.379 356.246 281.679C368.237 272.539 374.839 267.503 391.312 277.248C411.994 289.483 433.955 293.339 453.151 288.104C471.125 283.204 486.062 269.972 492.941 252.623C495.194 265.868 497.066 293.65 497.026 340.908C497.008 360.798 482.554 378.343 454.066 393.054C445.638 397.406 452.535 410.694 460.937 406.358C494.319 389.12 511.977 366.491 511.999 340.921C512.049 282.231 509.33 247.317 503.916 237.148ZM119.874 208.593C119.175 211.918 118.515 214.97 117.911 217.684C114.305 233.896 98.7189 239.242 92.1864 240.788C77.2127 244.329 61.4354 240.832 52.2764 232.291C52.2934 231.764 52.2595 231.228 52.1606 230.688C44.8255 190.625 36.7178 125.099 37.2568 100.66C37.4894 90.1416 41.9126 84.9717 66.4226 84.0393C73.8156 83.7578 98.5771 83.7578 105.97 84.0393C130.48 84.9717 134.902 90.1416 135.135 100.661C135.582 120.859 130.143 165.205 125.205 198.078C122.603 200.995 120.716 204.585 119.874 208.593ZM235.142 207.752C233.423 217.223 231.798 225.451 230.442 231.546C228.43 240.586 219.682 250.306 201.16 250.475C201.031 250.476 200.901 250.477 200.772 250.477C187.528 250.477 172.766 244.322 169.892 232.432C168.5 226.678 166.849 218.668 165.116 209.266C164.188 204.236 161.676 199.859 158.167 196.576C152.95 155.68 149.812 119.236 150.161 103.441C150.393 92.9227 154.816 87.7528 179.326 86.8204C186.719 86.5389 211.482 86.5389 218.873 86.8204C243.383 87.7528 247.805 92.9227 248.039 103.441C248.383 119.05 245.044 156.079 239.511 198.196C237.343 200.899 235.797 204.145 235.142 207.752ZM347.779 209.268C346.046 218.669 344.394 226.68 343.003 232.434C340.128 244.324 325.367 250.478 312.123 250.478C311.994 250.478 311.864 250.478 311.735 250.476C293.213 250.307 284.465 240.587 282.453 231.547C281.091 225.42 279.466 217.192 277.754 207.753C276.875 202.912 274.401 198.716 270.949 195.629C265.801 155.103 262.717 119.142 263.063 103.441C263.296 92.9227 267.719 87.7528 292.229 86.8204C299.622 86.5389 324.385 86.5389 331.776 86.8204C356.286 87.7528 360.708 92.9227 360.942 103.441C361.29 119.223 357.895 156.684 352.271 199.278C350.059 202.129 348.471 205.515 347.779 209.268ZM420.709 240.788C414.176 239.242 398.593 233.896 394.985 217.683C394.381 214.968 393.721 211.917 393.022 208.595C391.93 203.399 389.083 198.906 385.193 195.672C380.223 161.605 375.542 119.841 375.967 100.661C376.199 90.1426 380.623 84.9727 405.133 84.0403C412.524 83.7588 437.286 83.7588 444.679 84.0403C469.189 84.9727 473.612 90.1426 473.845 100.661C474.431 127.223 464.84 197.136 457.871 234.576C448.503 241.433 434.276 243.997 420.709 240.788Z" fill="#FFC700"/>
<path d="M460.178 106.823C460.593 97.1493 445.636 96.5164 445.218 106.179C444.568 121.313 444.215 126.037 441.258 151.419C440.169 160.766 454.992 162.936 456.13 153.151C459.126 127.436 459.517 122.186 460.178 106.823Z" fill="#FFC700"/>
<path d="M115.714 99.021C111.59 98.8543 108.089 102.048 107.913 106.179C107.264 121.299 106.911 126.021 103.954 151.418C102.865 160.764 117.688 162.935 118.826 153.15C121.822 127.419 122.213 122.17 122.872 106.821C123.049 102.692 119.844 99.1987 115.714 99.021Z" fill="#FFC700"/>
<path d="M340.903 98.995C336.727 98.8622 333.317 102.118 333.191 106.25C332.729 121.385 332.436 126.111 329.793 151.535C328.822 160.893 343.667 162.884 344.687 153.083C347.364 127.325 347.689 122.071 348.158 106.707C348.284 102.574 345.035 99.1208 340.903 98.995Z" fill="#FFC700"/>
<path d="M228.571 98.995C224.407 98.8622 220.985 102.118 220.86 106.25C220.397 121.385 220.104 126.111 217.462 151.535C216.49 160.893 231.335 162.884 232.355 153.083C235.033 127.325 235.357 122.071 235.826 106.707C235.953 102.574 232.705 99.1208 228.571 98.995Z" fill="#FFC700"/>
</g>
<defs>
<clipPath id="clip0_63_8">
<rect width="512" height="512" fill="white" transform="translate(0 0.5)"/>
</clipPath>
</defs>
</svg>
