<svg width="512" height="513" viewBox="0 0 512 513" fill="none" xmlns="http://www.w3.org/2000/svg">
<path d="M242.8 223.056C241.58 223.057 240.388 222.686 239.384 221.992C238.379 221.297 237.611 220.314 237.181 219.171C236.75 218.029 236.679 216.782 236.975 215.598C237.272 214.414 237.922 213.349 238.84 212.544L245.392 206.796C248.367 204.195 252.19 202.772 256.141 202.794C260.092 202.816 263.899 204.282 266.844 206.916L273.2 212.584C274.344 213.656 275.023 215.133 275.092 216.698C275.16 218.264 274.614 219.795 273.569 220.963C272.523 222.131 271.063 222.844 269.499 222.948C267.935 223.053 266.392 222.542 265.2 221.524L258.868 215.852C258.109 215.173 257.127 214.795 256.108 214.789C255.09 214.783 254.104 215.15 253.336 215.82L246.784 221.568C245.683 222.534 244.266 223.063 242.8 223.056Z" fill="#FFC700"/>
<path d="M256 261.116C254.409 261.116 252.883 260.484 251.757 259.359C250.632 258.233 250 256.707 250 255.116V229.452C250 227.861 250.632 226.335 251.757 225.209C252.883 224.084 254.409 223.452 256 223.452C257.591 223.452 259.117 224.084 260.243 225.209C261.368 226.335 262 227.861 262 229.452V255.116C262 256.707 261.368 258.233 260.243 259.359C259.117 260.484 257.591 261.116 256 261.116Z" fill="#FFC700"/>
<path d="M399.392 208.724C398.171 208.726 396.979 208.355 395.974 207.661C394.969 206.967 394.2 205.984 393.769 204.841C393.338 203.699 393.266 202.452 393.563 201.267C393.859 200.083 394.51 199.017 395.428 198.212L401.98 192.464C404.954 189.863 408.777 188.44 412.727 188.462C416.678 188.484 420.484 189.95 423.428 192.584L429.76 198.252C430.368 198.771 430.866 199.407 431.225 200.122C431.584 200.836 431.796 201.615 431.85 202.413C431.903 203.211 431.797 204.011 431.537 204.767C431.276 205.523 430.868 206.219 430.335 206.815C429.801 207.411 429.154 207.894 428.432 208.237C427.709 208.579 426.926 208.773 426.127 208.808C425.328 208.844 424.53 208.719 423.78 208.441C423.031 208.163 422.344 207.739 421.76 207.192L415.428 201.52C414.67 200.842 413.69 200.465 412.672 200.459C411.655 200.453 410.671 200.819 409.904 201.488L403.352 207.236C402.257 208.196 400.849 208.725 399.392 208.724Z" fill="#FFC700"/>
<path d="M412.572 246.784C410.981 246.784 409.455 246.152 408.33 245.027C407.204 243.901 406.572 242.375 406.572 240.784V215.12C406.572 213.529 407.204 212.003 408.33 210.877C409.455 209.752 410.981 209.12 412.572 209.12C414.164 209.12 415.69 209.752 416.815 210.877C417.94 212.003 418.572 213.529 418.572 215.12V240.784C418.572 242.375 417.94 243.901 416.815 245.027C415.69 246.152 414.164 246.784 412.572 246.784Z" fill="#FFC700"/>
<path d="M86.2483 208.548C85.0272 208.55 83.8347 208.179 82.8299 207.485C81.8252 206.791 81.056 205.808 80.6252 204.665C80.1943 203.523 80.1223 202.276 80.4188 201.091C80.7153 199.907 81.3661 198.841 82.2843 198.036L88.8363 192.288C91.8094 189.688 95.6301 188.265 99.5795 188.285C103.529 188.306 107.335 189.769 110.28 192.4L116.616 198.08C117.232 198.597 117.738 199.232 118.104 199.949C118.469 200.665 118.687 201.447 118.744 202.249C118.802 203.051 118.697 203.857 118.437 204.618C118.177 205.378 117.766 206.079 117.23 206.678C116.693 207.277 116.042 207.763 115.315 208.105C114.587 208.448 113.798 208.64 112.995 208.672C112.191 208.703 111.389 208.573 110.637 208.288C109.885 208.004 109.198 207.571 108.616 207.016L102.276 201.34C101.518 200.66 100.536 200.282 99.5176 200.276C98.4989 200.271 97.5136 200.64 96.7483 201.312L90.2003 207.06C89.1068 208.019 87.7024 208.547 86.2483 208.548Z" fill="#FFC700"/>
<path d="M99.4282 246.608C97.8369 246.608 96.3108 245.976 95.1856 244.851C94.0604 243.726 93.4282 242.199 93.4282 240.608V214.944C93.4282 213.353 94.0604 211.827 95.1856 210.701C96.3108 209.576 97.8369 208.944 99.4282 208.944C101.02 208.944 102.546 209.576 103.671 210.701C104.796 211.827 105.428 213.353 105.428 214.944V240.608C105.428 242.199 104.796 243.726 103.671 244.851C102.546 245.976 101.02 246.608 99.4282 246.608Z" fill="#FFC700"/>
<path d="M482.28 4.33203H29.9722C23.0792 4.3405 16.4709 7.0825 11.5968 11.9566C6.7227 16.8307 3.9807 23.439 3.97223 30.332V54.392C3.9572 62.5826 6.53882 70.5672 11.3462 77.1986C16.1535 83.83 22.9392 88.7669 30.7282 91.3C45.4415 94.6627 60.4297 96.683 75.5082 97.336L78.7082 127.104C79.0931 130.759 80.8189 134.142 83.5523 136.599C86.2858 139.056 89.8328 140.413 93.5082 140.408H105.376C109.052 140.413 112.599 139.056 115.332 136.599C118.066 134.142 119.791 130.759 120.176 127.104L123.084 99.952C157.084 101.304 195.76 102.012 232.188 102.224L235.28 131.104C235.666 134.759 237.392 138.141 240.125 140.598C242.858 143.055 246.405 144.413 250.08 144.408H261.94C265.616 144.415 269.164 143.059 271.898 140.601C274.632 138.144 276.357 134.76 276.74 131.104L279.832 102.224C316.256 102.016 354.94 101.308 388.932 99.956L391.84 127.104C392.225 130.759 393.951 134.142 396.684 136.599C399.418 139.056 402.965 140.413 406.64 140.408H418.508C422.184 140.413 425.732 139.056 428.465 136.598C431.199 134.14 432.924 130.756 433.308 127.1L436.508 97.356C451.674 96.7042 466.749 94.6772 481.548 91.3C489.338 88.7658 496.124 83.8274 500.93 77.1944C505.737 70.5615 508.317 62.5755 508.3 54.384V30.332C508.292 23.4355 505.547 16.8242 500.669 11.9495C495.79 7.07487 489.177 4.33521 482.28 4.33203ZM108.236 125.832C108.161 126.541 107.826 127.198 107.296 127.675C106.766 128.152 106.078 128.416 105.364 128.416H93.4962C92.7835 128.416 92.096 128.153 91.5658 127.676C91.0356 127.2 90.7002 126.545 90.6242 125.836L87.6642 98.18C95.0482 98.644 102.864 99.064 111.064 99.444L108.236 125.832ZM264.804 129.832C264.73 130.541 264.395 131.198 263.865 131.675C263.334 132.151 262.645 132.414 261.932 132.412H250.072C249.359 132.412 248.671 132.148 248.141 131.671C247.61 131.194 247.275 130.537 247.2 129.828L244.248 102.28H256C256 102.28 263.8 102.28 267.756 102.28L264.804 129.832ZM421.376 125.832C421.301 126.541 420.966 127.198 420.436 127.675C419.906 128.152 419.218 128.416 418.504 128.416H406.636C405.923 128.416 405.235 128.152 404.705 127.675C404.174 127.198 403.839 126.541 403.764 125.832L400.94 99.452C409.128 99.076 416.94 98.652 424.332 98.192L421.376 125.832ZM496.28 54.392C496.311 60.0256 494.556 65.5241 491.267 70.0978C487.977 74.6714 483.323 78.0849 477.972 79.848C457.808 86.1 368.604 90.304 256 90.304C143.548 90.304 54.4442 86.1 34.2802 79.848C28.9295 78.0849 24.2753 74.6714 20.9859 70.0978C17.6965 65.5241 15.9412 60.0256 15.9722 54.392V30.332C15.9722 26.619 17.4472 23.058 20.0727 20.4325C22.6982 17.807 26.2592 16.332 29.9722 16.332H482.28C485.993 16.332 489.554 17.807 492.18 20.4325C494.805 23.058 496.28 26.619 496.28 30.332V54.392Z" fill="#FFC700"/>
<path d="M486.36 298.308C451.56 261.532 344.064 288.816 284.492 314.652C275.496 318.537 265.8 320.541 256 320.541C246.201 320.541 236.505 318.537 227.508 314.652C167.936 288.816 60.4482 261.536 25.6402 298.308C-0.235785 325.652 -1.93179 374.728 21.3242 415.648C20.6002 434.944 23.2402 456.12 25.7242 462.048C30.7442 474.136 58.6242 480.024 75.7842 480.024C77.4642 480.024 79.0482 479.968 80.4922 479.856C83.8229 479.668 87.1057 478.975 90.2282 477.8C100.228 488.224 127.312 492.632 145.428 492.632C147.892 492.632 150.188 492.548 152.256 492.392C157.088 492.174 161.847 491.133 166.328 489.312C169.814 494.045 174.993 497.25 180.784 498.256C194.543 500.725 208.498 501.938 222.476 501.88C228.676 501.88 234.78 501.644 240.548 501.168C246.22 500.821 251.634 498.673 256 495.036C260.366 498.679 265.781 500.832 271.456 501.184C277.228 501.66 283.328 501.896 289.532 501.896C303.511 501.954 317.465 500.741 331.224 498.272C337.016 497.266 342.195 494.061 345.68 489.328C350.161 491.149 354.92 492.19 359.752 492.408C361.82 492.564 364.116 492.648 366.58 492.648C384.704 492.648 411.78 488.248 421.78 477.816C424.903 478.991 428.185 479.684 431.516 479.872C432.96 479.984 434.54 480.04 436.224 480.04C453.384 480.04 481.264 474.152 486.284 462.064C488.752 456.12 491.392 434.944 490.684 415.664C513.932 374.728 512.236 325.652 486.36 298.308ZM54.7602 465.508C42.5042 462.62 37.3522 458.836 36.7802 457.456C33.2962 449.056 30.5522 404.34 37.5802 392.284C42.3242 384.176 51.8162 385.012 55.6802 385.748C62.5759 387.337 68.9031 390.788 73.9723 395.725C79.0415 400.663 82.6582 406.897 84.4282 413.748C84.9005 415.779 85.0129 417.878 84.7602 419.948C83.0709 435.545 83.2818 451.29 85.3882 466.836C81.4682 468.312 69.5202 468.988 54.7722 465.516L54.7602 465.508ZM125.512 479.012C106.94 475.996 99.1122 470.804 98.2362 468.76C94.2002 459.384 94.5402 408.632 103.036 392.504C106.236 386.456 116 384.004 127.368 386.42C142.776 389.688 158.868 401.504 161.188 420.684C161.32 421.904 161.332 423.134 161.224 424.356C160.126 441.372 160.197 458.442 161.436 475.448C161.508 476.416 161.688 477.32 161.836 478.248C158.064 480.296 144.34 482.072 125.524 479.02L125.512 479.012ZM247.912 486.148C245.585 488.17 242.595 489.264 239.512 489.22C220.63 490.687 201.639 489.765 182.988 486.476C180.227 485.962 177.741 484.48 175.976 482.295C174.212 480.11 173.285 477.367 173.364 474.56C172.68 465.36 170.796 433.328 175.208 407.76C176.005 401.512 179.094 395.783 183.876 391.684C188.658 387.585 194.792 385.408 201.088 385.576C211.081 385.473 220.823 388.706 228.772 394.763C236.721 400.819 242.423 409.354 244.976 419.016C251.692 447.612 250.908 479.66 247.94 486.156L247.912 486.148ZM338.568 474.548C338.646 477.355 337.719 480.097 335.955 482.28C334.191 484.464 331.704 485.947 328.944 486.46C310.293 489.754 291.299 490.675 272.416 489.2C269.333 489.246 266.342 488.152 264.016 486.128C261.052 479.636 260.268 447.588 266.944 419.016C269.451 409.533 274.991 401.131 282.718 395.091C290.446 389.05 299.937 385.703 309.744 385.56H310.812C317.108 385.392 323.242 387.569 328.024 391.668C332.806 395.767 335.895 401.496 336.692 407.744C341.164 433.336 339.28 465.364 338.596 474.572L338.568 474.548ZM413.72 468.744C412.844 470.788 405.02 475.98 386.448 478.996C367.648 482.052 353.912 480.272 350.14 478.224C351.427 460.274 351.629 442.262 350.744 424.288C350.643 423.09 350.657 421.884 350.784 420.688C353.092 401.488 369.184 389.668 384.608 386.4C395.992 384 405.764 386.432 408.94 392.484C417.448 408.64 417.788 459.392 413.748 468.768L413.72 468.744ZM475.18 457.44C474.608 458.82 469.456 462.604 457.18 465.492C442.42 468.968 430.48 468.292 426.536 466.836C428.643 451.29 428.854 435.545 427.164 419.948C426.912 417.878 427.024 415.779 427.496 413.748C429.266 406.897 432.883 400.663 437.952 395.725C443.021 390.788 449.349 387.337 456.244 385.748C460.1 385.02 469.6 384.176 474.344 392.284C481.436 404.348 478.692 449.072 475.2 457.464L475.18 457.44ZM484.72 386.208C478.756 376.012 467.292 371.408 454.02 373.944C441.238 376.695 430.034 384.327 422.796 395.216C421.988 392.348 420.905 389.565 419.564 386.904C413.764 375.872 399.056 371.064 382.116 374.664C367.676 377.656 354.945 386.1 346.572 398.24C343.993 390.949 339.193 384.65 332.849 380.227C326.504 375.805 318.933 373.482 311.2 373.584C298.876 373.398 286.826 377.226 276.868 384.49C266.911 391.754 259.586 402.06 256 413.852C252.431 402.046 245.106 391.728 235.138 384.465C225.17 377.201 213.104 373.389 200.772 373.608C193.039 373.505 185.468 375.829 179.124 380.251C172.779 384.674 167.98 390.973 165.4 398.264C157.026 386.125 144.296 377.682 129.856 374.688C112.912 371.088 98.2082 375.888 92.4082 386.928C91.067 389.589 89.9847 392.372 89.1762 395.24C81.9382 384.351 70.7347 376.719 57.9522 373.968C44.6962 371.444 33.2162 376.032 27.2482 386.236C25.9469 388.581 24.9419 391.079 24.2562 393.672C12.1562 361.488 15.6002 326.396 34.3602 306.556C60.2922 279.144 152.336 295.132 222.736 325.66C233.239 330.196 244.559 332.536 256 332.536C267.441 332.536 278.761 330.196 289.264 325.66C359.664 295.132 451.712 279.144 477.64 306.556C496.416 326.396 499.844 361.488 487.744 393.672C487.059 391.077 486.053 388.578 484.748 386.232L484.72 386.208Z" fill="#FFC700"/>
</svg>
