<svg width="500" height="501" viewBox="0 0 500 501" fill="none" xmlns="http://www.w3.org/2000/svg">
<path d="M300.158 168.027C299.512 168.027 298.859 167.943 298.206 167.766C269.475 159.963 255.453 144.132 254.87 143.462C252.181 140.367 252.506 135.676 255.602 132.985C258.685 130.305 263.352 130.621 266.053 133.687C266.183 133.832 278 146.888 302.099 153.432C306.056 154.508 308.393 158.586 307.32 162.545C306.42 165.851 303.424 168.027 300.158 168.027Z" fill="#FFC700"/>
<path d="M135.205 251.119C134.863 251.119 134.52 251.096 134.175 251.047C131.541 250.679 129.307 248.93 128.316 246.464C124.502 236.979 122.569 227.036 122.569 216.906C122.569 173.153 158.166 137.556 201.92 137.556C205.485 137.556 209.154 137.849 213.459 138.481C215.385 138.763 217.122 139.792 218.299 141.342L229.499 156.112C230.845 157.888 231.324 160.176 230.802 162.343L224.067 190.247C223.501 192.585 221.839 194.505 219.606 195.399L193.454 205.859L178.237 223.251C177.402 224.203 176.337 224.928 175.145 225.354L152.595 233.407L141.07 248.25C139.651 250.072 137.479 251.119 135.205 251.119ZM201.919 152.406C166.354 152.406 137.42 181.341 137.42 216.905C137.42 220.496 137.718 224.058 138.316 227.577L142.19 222.585C143.058 221.468 144.227 220.622 145.558 220.146L168.328 212.015L183.446 194.733C184.22 193.851 185.189 193.164 186.277 192.728L210.526 183.032L215.535 162.277L208.338 152.789C206.018 152.532 203.929 152.406 201.919 152.406Z" fill="#FFC700"/>
<path d="M327.268 475.498C324.802 475.498 322.299 475.154 319.804 474.446C306.745 470.739 297.974 458.333 297.974 443.571V403.661C297.974 379.789 281.153 360.366 260.474 360.366C239.798 360.366 222.977 379.788 222.977 403.661V443.571C222.977 458.332 214.205 470.738 201.146 474.446C189.074 477.88 176.738 472.764 169.735 461.419C130.422 397.75 117.851 309.327 113.854 262.287C113.697 260.428 114.245 258.576 115.388 257.103L142.189 222.585C143.057 221.468 144.226 220.622 145.557 220.146L168.327 212.015L183.445 194.733C184.219 193.851 185.188 193.164 186.276 192.728L210.525 183.032L215.534 162.277L204.193 147.321C202.925 145.648 202.423 143.516 202.815 141.454L207.265 117.947C207.97 114.205 211.389 111.623 215.186 111.928C231.354 113.294 246.893 119.229 260.468 129.169C276.161 117.65 294.211 111.594 313.022 111.594C366.095 111.594 409.275 159.917 409.275 219.31C409.286 225.326 408.875 368.035 351.213 461.418C345.66 470.42 336.747 475.498 327.268 475.498ZM260.475 345.515C289.341 345.515 312.826 371.6 312.826 403.661V443.571C312.826 453.503 318.77 458.715 323.86 460.16C329.54 461.77 335.054 459.331 338.582 453.616C394.042 363.797 394.43 220.757 394.427 219.325C394.427 168.105 357.911 126.446 313.026 126.446C295.799 126.446 279.268 132.618 265.224 144.299C262.468 146.584 258.483 146.587 255.727 144.296C245.247 135.582 233.2 129.882 220.554 127.603L218.024 140.975L229.499 156.11C230.845 157.889 231.324 160.174 230.802 162.341L224.067 190.245C223.501 192.583 221.839 194.503 219.606 195.397L193.454 205.857L178.237 223.249C177.402 224.201 176.337 224.926 175.145 225.352L152.595 233.405L128.906 263.911C133.051 310.283 145.459 393.829 182.373 453.617C185.9 459.332 191.406 461.771 197.094 460.161C202.185 458.716 208.129 453.504 208.129 443.572V403.662C208.127 371.6 231.61 345.515 260.475 345.515Z" fill="#FFC700"/>
<path d="M463.494 475.496C459.392 475.496 456.068 472.172 456.068 468.07V413.73C456.068 392.224 441.732 379.658 428.317 375.073C415.134 370.571 396.428 371.688 383.496 388.387L382.85 389.257C380.515 392.605 375.914 393.446 372.552 391.125C369.185 388.813 368.326 384.209 370.62 380.831C370.62 380.831 371 380.268 371.754 379.296C386.353 360.439 410.438 353.272 433.123 361.02C456.082 368.872 470.918 389.56 470.918 413.731V468.071C470.919 472.172 467.595 475.496 463.494 475.496Z" fill="#FFC700"/>
<path d="M56.675 475.496C52.573 475.496 49.249 472.172 49.249 468.07V413.73C49.249 389.559 64.086 368.871 87.045 361.019C109.727 353.265 133.815 360.438 148.413 379.295C149.168 380.267 149.548 380.83 149.548 380.83C151.847 384.214 150.984 388.841 147.604 391.15C144.231 393.449 139.642 392.617 137.318 389.255L136.671 388.385C123.743 371.686 105.036 370.561 91.85 375.071C78.435 379.657 64.1 392.222 64.1 413.728V468.068C64.101 472.172 60.776 475.496 56.675 475.496Z" fill="#FFC700"/>
<path d="M184.82 307.984C114.935 307.984 58.0791 251.128 58.0791 181.243C58.0791 111.355 114.935 54.499 184.82 54.499C254.705 54.499 311.561 111.355 311.561 181.243C311.561 251.128 254.705 307.984 184.82 307.984ZM184.82 69.35C123.123 69.35 72.9301 119.545 72.9301 181.242C72.9301 242.938 123.123 293.131 184.82 293.131C246.516 293.131 296.709 242.938 296.709 181.242C296.709 119.545 246.516 69.35 184.82 69.35Z" fill="#FFC700"/>
<path d="M128.495 325.883C127.556 325.883 126.598 325.704 125.676 325.324C66.9951 301.211 29.0811 244.657 29.0811 181.243C29.0811 95.366 98.9461 25.5 184.82 25.5C245.458 25.5 301.017 61.141 326.365 116.296C328.08 120.024 326.447 124.433 322.719 126.145C318.989 127.862 314.58 126.217 312.871 122.499C289.936 72.596 239.674 40.352 184.82 40.352C107.135 40.352 43.9331 103.554 43.9331 181.242C43.9331 238.608 78.2361 289.772 131.32 311.586C135.114 313.146 136.924 317.483 135.367 321.277C134.186 324.146 131.416 325.883 128.495 325.883Z" fill="#FFC700"/>
</svg>
