<svg width="500" height="501" viewBox="0 0 500 501" fill="none" xmlns="http://www.w3.org/2000/svg">
<path d="M304.751 92.284C304.12 92.284 303.48 92.202 302.843 92.036C266.882 82.577 245.843 63.699 244.963 62.899C241.906 60.12 241.684 55.389 244.466 52.333C247.244 49.282 251.973 49.054 255.023 51.827C255.401 52.164 274.587 69.136 306.647 77.566C310.645 78.618 313.029 82.709 311.98 86.704C311.098 90.06 308.068 92.284 304.751 92.284Z" fill="#FFC700"/>
<path d="M335.952 475.5C332.817 475.5 329.629 475.051 326.455 474.127C310.83 469.569 300.33 454.847 300.33 437.483V387.741C300.33 357.012 277.753 332.009 250.001 332.009C222.249 332.009 199.669 357.012 199.669 387.741V437.483C199.669 454.847 189.169 469.569 173.545 474.127C158.809 478.417 143.694 472.444 135.05 458.884C105.539 412.597 101.72 377.064 97.2981 335.925C96.0621 324.417 94.7851 312.529 92.8831 299.719C76.6711 274.904 66.6481 246.263 63.8691 216.784C60.5781 181.841 60.5821 158.922 60.5851 157.963C60.5851 84.929 115.218 25.5 182.373 25.5C206.619 25.5 229.879 33.239 250.001 47.94C270.121 33.239 293.381 25.5 317.627 25.5C384.782 25.5 439.415 84.929 439.415 157.978C439.418 158.922 439.418 181.841 436.13 216.784C433.348 246.269 423.322 274.909 407.113 299.719C405.214 312.529 403.937 324.411 402.701 335.919C398.28 377.058 394.463 412.591 364.949 458.884C358.163 469.528 347.398 475.5 335.952 475.5ZM250.001 317.047C286.003 317.047 315.292 348.758 315.292 387.741V437.483C315.292 450.627 323.561 457.698 330.645 459.762C339.066 462.233 347.196 458.891 352.33 450.843C379.96 407.507 383.431 375.211 387.823 334.318C389.13 322.173 390.48 309.607 392.564 295.856C392.727 294.774 393.127 293.74 393.735 292.828C409.123 269.748 418.633 242.966 421.233 215.381C424.456 181.148 424.453 158.218 424.453 157.993C424.453 93.178 376.532 40.462 317.627 40.462C294.924 40.462 273.16 48.323 254.695 63.194C251.954 65.397 248.046 65.397 245.312 63.194C226.841 48.323 205.076 40.462 182.373 40.462C123.467 40.462 75.5461 93.178 75.5461 157.977C75.5461 158.22 75.5461 181.215 78.7671 215.38C81.3651 242.96 90.8731 269.742 106.261 292.827C106.87 293.738 107.27 294.773 107.433 295.855C109.52 309.606 110.869 322.172 112.176 334.322C116.571 375.21 120.043 407.506 147.669 450.842C152.801 458.896 160.91 462.239 169.355 459.761C176.438 457.697 184.708 450.625 184.708 437.482V387.74C184.708 348.759 213.997 317.047 250.001 317.047Z" fill="#FFC700"/>
<path d="M152.666 143.408C148.534 143.408 145.185 140.059 145.185 135.927V90.671C145.185 86.539 148.534 83.191 152.666 83.191C156.798 83.191 160.147 86.539 160.147 90.671V135.927C160.147 140.059 156.798 143.408 152.666 143.408Z" fill="#FFC700"/>
<path d="M175.292 120.778H130.04C125.908 120.778 122.559 117.429 122.559 113.298C122.559 109.166 125.908 105.817 130.04 105.817H175.292C179.424 105.817 182.773 109.166 182.773 113.298C182.773 117.429 179.424 120.778 175.292 120.778Z" fill="#FFC700"/>
</svg>
