<svg width="36" height="36" viewBox="0 0 256 256" fill="none" xmlns="http://www.w3.org/2000/svg">
<path d="M240.782 82.3149H14.931C11.8288 82.3149 9.31104 79.7972 9.31104 76.6949V47.0831C9.31104 32.0019 21.5795 19.7334 36.6608 19.7334H219.052C234.131 19.7334 246.399 32.0019 246.399 47.0831V76.6977C246.402 79.8 243.884 82.3149 240.782 82.3149ZM20.551 71.0749H235.162V47.0803C235.162 38.1979 227.937 30.9706 219.055 30.9706H36.6608C27.7755 30.9706 20.551 38.1979 20.551 47.0803V71.0749Z" fill="#FFC700"/>
<path d="M122.602 254.307H36.6608C21.5795 254.307 9.31104 242.038 9.31104 226.957V76.6949C9.31104 73.5927 11.8288 71.0749 14.931 71.0749H240.782C243.884 71.0749 246.402 73.5927 246.402 76.6949V130.506C246.402 133.609 243.884 136.126 240.782 136.126C237.68 136.126 235.162 133.609 235.162 130.506V82.3149H20.551V226.954C20.551 235.836 27.7784 243.064 36.6608 243.064H122.602C125.704 243.064 128.222 245.582 128.222 248.684C128.222 251.786 125.707 254.307 122.602 254.307Z" fill="#FFC700"/>
<path d="M60.0092 49.303C56.9069 49.303 54.3892 46.7853 54.3892 43.683V7.02659C54.3892 3.92435 56.9069 1.40659 60.0092 1.40659C63.1114 1.40659 65.6292 3.92435 65.6292 7.02659V43.683C65.6292 46.7853 63.1142 49.303 60.0092 49.303Z" fill="#FFC700"/>
<path d="M195.704 49.303C192.602 49.303 190.084 46.7853 190.084 43.683V7.02659C190.084 3.92435 192.602 1.40659 195.704 1.40659C198.806 1.40659 201.324 3.92435 201.324 7.02659V43.683C201.324 46.7853 198.806 49.303 195.704 49.303Z" fill="#FFC700"/>
<path d="M127.857 49.303C124.754 49.303 122.237 46.7853 122.237 43.683V7.02659C122.237 3.92435 124.754 1.40659 127.857 1.40659C130.959 1.40659 133.477 3.92435 133.477 7.02659V43.683C133.477 46.7853 130.959 49.303 127.857 49.303Z" fill="#FFC700"/>
<path d="M59.8938 119.382H55.6254C53.7005 119.382 52.1382 117.822 52.1382 115.894V111.626C52.1382 109.701 53.6977 108.139 55.6254 108.139H59.8938C61.8186 108.139 63.381 109.698 63.381 111.626V115.894C63.381 117.822 61.8214 119.382 59.8938 119.382Z" fill="#FFC700"/>
<path d="M106.624 119.382H102.356C100.431 119.382 98.8687 117.822 98.8687 115.894V111.626C98.8687 109.701 100.428 108.139 102.356 108.139H106.624C108.549 108.139 110.111 109.698 110.111 111.626V115.894C110.111 117.822 108.552 119.382 106.624 119.382Z" fill="#FFC700"/>
<path d="M153.354 119.382H149.086C147.161 119.382 145.599 117.822 145.599 115.894V111.626C145.599 109.701 147.158 108.139 149.086 108.139H153.354C155.279 108.139 156.842 109.698 156.842 111.626V115.894C156.842 117.822 155.282 119.382 153.354 119.382Z" fill="#FFC700"/>
<path d="M200.088 119.382H195.819C193.894 119.382 192.332 117.822 192.332 115.894V111.626C192.332 109.701 193.892 108.139 195.819 108.139H200.088C202.012 108.139 203.575 109.698 203.575 111.626V115.894C203.572 117.822 202.012 119.382 200.088 119.382Z" fill="#FFC700"/>
<path d="M59.8938 166.112H55.6254C53.7005 166.112 52.1382 164.552 52.1382 162.625V158.356C52.1382 156.431 53.6977 154.869 55.6254 154.869H59.8938C61.8186 154.869 63.381 156.429 63.381 158.356V162.625C63.381 164.552 61.8214 166.112 59.8938 166.112Z" fill="#FFC700"/>
<path d="M106.624 166.112H102.356C100.431 166.112 98.8687 164.552 98.8687 162.625V158.356C98.8687 156.431 100.428 154.869 102.356 154.869H106.624C108.549 154.869 110.111 156.429 110.111 158.356V162.625C110.111 164.552 108.552 166.112 106.624 166.112Z" fill="#FFC700"/>
<path d="M59.8938 212.842H55.6254C53.7005 212.842 52.1382 211.283 52.1382 209.355V205.087C52.1382 203.162 53.6977 201.599 55.6254 201.599H59.8938C61.8186 201.599 63.381 203.159 63.381 205.087V209.355C63.381 211.283 61.8214 212.842 59.8938 212.842Z" fill="#FFC700"/>
<path d="M106.624 212.842H102.356C100.431 212.842 98.8687 211.283 98.8687 209.355V205.087C98.8687 203.162 100.428 201.599 102.356 201.599H106.624C108.549 201.599 110.111 203.159 110.111 205.087V209.355C110.111 211.283 108.552 212.842 106.624 212.842Z" fill="#FFC700"/>
<path d="M189.03 254.307C157.395 254.307 131.658 228.57 131.658 196.935C131.658 165.297 157.395 139.56 189.03 139.56C220.665 139.56 246.402 165.297 246.402 196.935C246.402 228.57 220.662 254.307 189.03 254.307ZM189.03 150.8C163.591 150.8 142.898 171.496 142.898 196.935C142.898 222.374 163.591 243.067 189.03 243.067C214.469 243.067 235.162 222.374 235.162 196.935C235.162 171.496 214.466 150.8 189.03 150.8Z" fill="#FFC700"/>
<path d="M213.57 202.555H189.03C185.928 202.555 183.41 200.037 183.41 196.935V168.186C183.41 165.083 185.928 162.566 189.03 162.566C192.132 162.566 194.65 165.083 194.65 168.186V191.315H213.57C216.672 191.315 219.19 193.833 219.19 196.935C219.19 200.037 216.672 202.555 213.57 202.555Z" fill="#FFC700"/>
</svg>
