<svg width="118" height="118" viewBox="0 0 118 118" fill="none" xmlns="http://www.w3.org/2000/svg">
<g clip-path="url(#clip0_40_2)">
<path fill-rule="evenodd" clip-rule="evenodd" d="M0 59C0 26.4152 26.4152 0 59 0C91.5848 0 118 26.4152 118 59C118 91.5848 91.5848 118 59 118C26.4152 118 0 91.5848 0 59ZM65.1497 93.6907V61.5916H74.0104L75.1847 50.5301H65.1497L65.1647 44.9937C65.1647 42.1086 65.4388 40.5628 69.5825 40.5628H75.1219V29.5H66.2599C55.6152 29.5 51.8685 34.866 51.8685 43.89V50.5313H45.2333V61.5928H51.8685V93.6907H65.1497Z" fill="black"/>
</g>
<defs>
<clipPath id="clip0_40_2">
<rect width="118" height="118" fill="white"/>
</clipPath>
</defs>
</svg>
