<svg width="45" height="8" viewBox="0 0 45 8" fill="none" xmlns="http://www.w3.org/2000/svg">
<path d="M3.23239 1.14374C2.91364 1.78124 2.65114 2.30624 2.63239 2.32499C2.61364 2.34374 2.05114 2.43749 1.35739 2.53124C0.663644 2.62499 0.0636441 2.75624 0.00739412 2.81249C-0.0488559 2.86874 0.213644 3.20624 0.869894 3.84374L1.82614 4.78124L1.61989 6.07499C1.50739 6.78749 1.45114 7.40624 1.48864 7.44374C1.52614 7.48124 2.08864 7.23749 2.74489 6.89999L3.92614 6.28124L5.10739 6.89999C5.74489 7.23749 6.32614 7.48124 6.36364 7.44374C6.40114 7.40624 6.32614 6.78749 6.21364 6.07499L6.00739 4.76249L6.90739 3.91874C7.43239 3.43124 7.80739 2.99999 7.80739 2.88749C7.80739 2.79374 7.78864 2.71874 7.75114 2.71874C7.69489 2.71874 5.85739 2.45624 5.48239 2.39999C5.20114 2.34374 5.14489 2.28749 4.61989 1.18124C4.26364 0.431241 4.01989 0.01874 3.92614 0.01874C3.85114 -9.98507e-06 3.60739 0.41249 3.23239 1.14374Z" fill="#FFC700"/>
<path d="M12.9074 0.112469C12.8512 0.168719 12.5699 0.69372 12.2887 1.27497C11.8199 2.23122 11.7449 2.32497 11.4637 2.38122C11.2949 2.39997 10.7324 2.49372 10.2262 2.56872C9.71991 2.64372 9.25116 2.75622 9.19491 2.81247C9.13866 2.86872 9.43866 3.22497 10.0574 3.86247L10.9949 4.81872L10.7699 6.07497C10.6199 6.91872 10.5824 7.34997 10.6387 7.42497C10.6949 7.48122 11.1074 7.33122 11.8949 6.91872L13.0574 6.31872L14.2199 6.91872C14.9699 7.29372 15.4199 7.48122 15.4762 7.42497C15.5324 7.36872 15.4949 6.88122 15.3449 6.07497L15.1199 4.81872L16.0762 3.86247C16.7512 3.16872 16.9949 2.86872 16.9199 2.81247C16.8637 2.75622 16.2637 2.62497 15.5699 2.53122C14.8762 2.43747 14.3137 2.32497 14.2949 2.28747C14.0887 1.78122 13.1699 0.0749703 13.0949 0.0374703C13.0387 0.0187203 12.9449 0.0562192 12.9074 0.112469Z" fill="#FFC700"/>
<path d="M21.5698 1.14374C21.251 1.78124 20.9885 2.30624 20.9698 2.32499C20.951 2.34374 20.3885 2.43749 19.6948 2.53124C19.001 2.62499 18.401 2.75624 18.3448 2.81249C18.2885 2.86874 18.551 3.20624 19.2073 3.84374L20.1823 4.78124L19.976 6.07499C19.8635 6.78749 19.7885 7.40624 19.8448 7.44374C19.8823 7.48124 20.4448 7.23749 21.101 6.89999L22.2823 6.28124L23.4635 6.89999C24.101 7.23749 24.6823 7.48124 24.7198 7.44374C24.7573 7.40624 24.701 6.78749 24.5698 6.07499L24.3635 4.76249L25.2635 3.91874C25.7885 3.43124 26.1635 2.99999 26.1635 2.88749C26.1635 2.79374 26.1448 2.71874 26.1073 2.71874C26.051 2.71874 24.2135 2.45624 23.8385 2.39999C23.5573 2.34374 23.501 2.26874 22.976 1.18124C22.6198 0.431241 22.376 0.01874 22.2823 0.01874C22.1885 -9.98507e-06 21.926 0.41249 21.5698 1.14374Z" fill="#FFC700"/>
<path d="M30.9824 0.206258C30.9074 0.318758 30.6449 0.84376 30.4012 1.35001C30.1574 1.85626 29.9512 2.28751 29.9512 2.30626C29.9324 2.32501 29.3887 2.40001 28.6949 2.51251C28.0199 2.60626 27.4012 2.73751 27.3449 2.79376C27.2887 2.85001 27.5137 3.15001 28.1887 3.84376L29.1449 4.80001L28.9199 6.05626C28.7699 6.90001 28.7324 7.33126 28.7887 7.40626C28.8449 7.46251 29.2574 7.31251 30.0449 6.90001L31.2074 6.30001L32.3699 6.90001C33.1574 7.29376 33.5699 7.46251 33.6262 7.40626C33.6824 7.35001 33.6449 6.90001 33.4949 6.05626L33.2699 4.80001L34.2262 3.84376C34.8637 3.20626 35.1449 2.85001 35.0699 2.79376C35.0137 2.73751 34.4137 2.62501 33.7199 2.51251C32.9887 2.40001 32.4449 2.26876 32.4262 2.21251C32.2762 1.83751 31.3199 0.0375085 31.2262 0.0187585C31.1699 8.46456e-06 31.0574 0.0937585 30.9824 0.206258Z" fill="#FFC700"/>
<path d="M39.6073 1.1625C39.0823 2.25 39.0261 2.325 38.7448 2.38125C38.5761 2.4 38.0136 2.49375 37.4698 2.56875C36.9261 2.64375 36.4573 2.75625 36.4011 2.8125C36.3448 2.86875 36.6261 3.225 37.2823 3.84375L38.2386 4.78125L38.0323 6.075C37.9198 6.7875 37.8448 7.40625 37.9011 7.44375C37.9386 7.48125 38.5011 7.2375 39.1573 6.9L40.3386 6.28125L41.5198 6.9C42.1573 7.2375 42.7386 7.48125 42.7761 7.44375C42.8323 7.40625 42.7573 6.7875 42.6448 6.075L42.4386 4.8L43.3948 3.84375C44.0698 3.20625 44.3323 2.86875 44.2761 2.8125C44.2198 2.75625 43.6198 2.64375 42.9261 2.53125C42.2511 2.4375 41.6698 2.34375 41.6511 2.325C41.6323 2.30625 41.3698 1.78125 41.0698 1.14375C40.6948 0.39375 40.4511 0 40.3573 0C40.2261 0 39.9823 0.393751 39.6073 1.1625Z" fill="#FFC700"/>
</svg>
