<svg width="118" height="118" viewBox="0 0 118 118" fill="none" xmlns="http://www.w3.org/2000/svg">
<path d="M59.0043 0C42.9807 0 40.9698 0.0700636 34.6764 0.356459C28.3953 0.644084 24.1079 1.63848 20.3564 3.0975C16.4759 4.60446 13.1842 6.62029 9.90473 9.90094C6.62282 13.1804 4.60696 16.4721 3.09507 20.3513C1.63235 24.104 0.636715 28.3925 0.354004 34.6711C0.0737509 40.9644 0 42.9766 0 59C0 75.0234 0.0712935 77.0282 0.356463 83.3215C0.64532 89.6026 1.63973 93.8899 3.09753 97.6413C4.60574 101.522 6.62159 104.814 9.90227 108.093C13.1805 111.375 16.4722 113.396 20.3503 114.903C24.1042 116.362 28.3928 117.356 34.6727 117.644C40.9661 117.93 42.9758 118 58.9982 118C75.023 118 77.0278 117.93 83.3212 117.644C89.6023 117.356 93.8946 116.362 97.6485 114.903C101.528 113.396 104.815 111.375 108.093 108.093C111.375 104.814 113.391 101.522 114.902 97.6425C116.353 93.8899 117.349 89.6013 117.644 83.3227C117.926 77.0294 118 75.0234 118 59C118 42.9766 117.926 40.9657 117.644 34.6723C117.349 28.3913 116.353 24.104 114.902 20.3525C113.391 16.4721 111.375 13.1804 108.093 9.90094C104.811 6.61906 101.529 4.60323 97.6448 3.0975C93.8835 1.63848 89.5937 0.644084 83.3126 0.356459C77.0192 0.0700636 75.0156 0 58.9871 0H59.0043ZM53.7115 10.6323C55.2823 10.6298 57.0352 10.6323 59.0043 10.6323C74.7575 10.6323 76.6246 10.6888 82.8455 10.9715C88.598 11.2346 91.7201 12.1958 93.7999 13.0034C96.5533 14.0727 98.5163 15.3511 100.58 17.4161C102.645 19.4811 103.923 21.4477 104.995 24.2011C105.803 26.2784 106.765 29.4004 107.027 35.1529C107.31 41.3725 107.371 43.2408 107.371 58.9865C107.371 74.7321 107.31 76.6004 107.027 82.82C106.764 88.5725 105.803 91.6946 104.995 93.7719C103.926 96.5252 102.645 98.4858 100.58 100.55C98.5151 102.615 96.5545 103.893 93.7999 104.962C91.7226 105.773 88.598 106.732 82.8455 106.995C76.6258 107.278 74.7575 107.339 59.0043 107.339C43.2499 107.339 41.3828 107.278 35.1631 106.995C29.4106 106.73 26.2885 105.769 24.2075 104.961C21.4541 103.892 19.4874 102.613 17.4224 100.548C15.3574 98.4833 14.079 96.5215 13.0072 93.767C12.1996 91.6897 11.2372 88.5676 10.9753 82.8151C10.6926 76.5955 10.6361 74.7272 10.6361 58.9717C10.6361 43.2163 10.6926 41.3578 10.9753 35.1382C11.2384 29.3857 12.1996 26.2636 13.0072 24.1839C14.0766 21.4305 15.3574 19.4639 17.4224 17.3989C19.4874 15.3339 21.4541 14.0555 24.2075 12.9837C26.2872 12.1724 29.4106 11.2137 35.1631 10.9494C40.6059 10.7036 42.7152 10.6298 53.7115 10.6175V10.6323Z" fill="#FFC700"/>
<path d="M90.3715 20.2838C88.971 20.2838 87.6021 20.6991 86.4377 21.4772C85.2734 22.2553 84.3659 23.3611 83.8301 24.655C83.2943 25.9488 83.1542 27.3725 83.4276 28.746C83.701 30.1194 84.3755 31.381 85.366 32.371C86.3564 33.3611 87.6181 34.0352 88.9917 34.3081C90.3653 34.581 91.7889 34.4404 93.0826 33.9042C94.3763 33.3679 95.4819 32.4601 96.2595 31.2955C97.0372 30.1308 97.452 28.7618 97.4515 27.3614C97.4515 23.4526 94.2803 20.2838 90.3715 20.2838Z" fill="#FFC700"/>
<path fill-rule="evenodd" clip-rule="evenodd" d="M58.8774 28.5561C42.1446 28.5561 28.5782 42.1224 28.5782 58.8551C28.5782 75.5877 42.1446 89.1479 58.8774 89.1479C75.6102 89.1479 89.173 75.5877 89.173 58.8551C89.173 42.1224 75.6102 28.5561 58.8774 28.5561ZM59 78.3595C69.6919 78.3595 78.3594 69.692 78.3594 59.0001C78.3594 48.3082 69.6919 39.6407 59 39.6407C48.3081 39.6407 39.6407 48.3082 39.6407 59.0001C39.6407 69.692 48.3081 78.3595 59 78.3595Z" fill="#FFC700"/>
</svg>
