<svg width="118" height="118" viewBox="0 0 118 118" fill="none" xmlns="http://www.w3.org/2000/svg">
<path fill-rule="evenodd" clip-rule="evenodd" d="M19.6345 0C8.79068 0 0 8.80507 0 19.6667V98.3333C0 109.195 8.79068 118 19.6345 118H95.9071C106.751 118 115.542 109.195 115.542 98.3333V19.6667C115.542 8.80507 106.751 0 95.9071 0H19.6345ZM15.8573 26.3966C15.8573 32.3296 20.3482 36.6653 25.8878 36.6653C31.4283 36.6653 35.9192 32.3296 35.9192 26.3966C35.9192 20.4645 31.4283 16.1238 25.8878 16.1238C20.3482 16.1238 15.8573 20.4645 15.8573 26.3966ZM81.331 101.412H98.7295V66.2649C98.7295 48.9064 88.2385 42.9858 78.5302 42.9858C69.5533 42.9858 63.4551 48.9584 61.7714 52.4571V44.5831H45.0391V101.412H62.4376V70.6014C62.4376 62.3862 67.4983 58.3909 72.6611 58.3909C77.5441 58.3909 81.331 61.2153 81.331 70.3734V101.412ZM34.5867 44.5393V101.369H17.189V44.5393H34.5867Z" fill="#FFC700"/>
</svg>
