<svg width="36" height="36" viewBox="0 0 427 427" fill="none" xmlns="http://www.w3.org/2000/svg">
<path d="M416 170.667H407.125C412.944 153.485 415.941 135.474 416 117.333C416 43.8613 376.128 0 309.333 0C274.782 0.95588 241.176 11.4956 212.267 30.4427C184.299 15.584 151.243 0 117.333 0C50.5387 0 10.6667 43.8613 10.6667 117.333C10.7253 135.474 13.7223 153.485 19.5413 170.667H10.6667C7.83769 170.667 5.12458 171.79 3.1242 173.791C1.12381 175.791 0 178.504 0 181.333C0 184.162 1.12381 186.875 3.1242 188.876C5.12458 190.876 7.83769 192 10.6667 192H27.7333C33.248 204.469 39.5413 216.32 45.7707 228C59.3823 250.377 69.2034 274.848 74.8373 300.427C81.3396 337.685 96.2689 372.965 118.485 403.573C121.269 407.765 123.819 411.573 125.952 415.104C128.088 418.645 131.105 421.571 134.71 423.598C138.314 425.624 142.382 426.682 146.517 426.667C152.92 426.658 159.057 424.111 163.584 419.584C168.111 415.057 170.658 408.92 170.667 402.517V330.667C170.667 319.351 175.162 308.498 183.163 300.497C191.165 292.495 202.017 288 213.333 288C224.649 288 235.502 292.495 243.503 300.497C251.505 308.498 256 319.351 256 330.667V402.517C256.008 408.92 258.555 415.057 263.083 419.584C267.61 424.111 273.747 426.658 280.149 426.667C284.285 426.685 288.355 425.629 291.959 423.602C295.564 421.575 298.581 418.647 300.715 415.104C302.848 411.573 305.419 407.765 308.181 403.573C330.389 372.961 345.315 337.682 351.819 300.427C357.457 274.85 367.278 250.379 380.885 228C387.2 216.32 393.44 204.469 398.933 192H416C418.829 192 421.542 190.876 423.542 188.876C425.543 186.875 426.667 184.162 426.667 181.333C426.667 178.504 425.543 175.791 423.542 173.791C421.542 171.79 418.829 170.667 416 170.667ZM362.091 217.963C347.369 242.361 336.8 269.035 330.816 296.896C324.83 331.189 311.022 363.641 290.464 391.733C287.488 396.192 284.789 400.267 282.496 403.989C282.145 404.452 281.663 404.798 281.113 404.981C280.562 405.165 279.969 405.178 279.411 405.019C278.853 404.86 278.356 404.536 277.985 404.09C277.615 403.643 277.387 403.095 277.333 402.517V330.667C277.333 313.693 270.591 297.414 258.588 285.412C246.586 273.41 230.307 266.667 213.333 266.667C196.359 266.667 180.081 273.41 168.078 285.412C156.076 297.414 149.333 313.693 149.333 330.667V402.517C149.284 403.099 149.058 403.651 148.688 404.102C148.317 404.552 147.818 404.88 147.257 405.04C146.696 405.201 146.1 405.188 145.547 405.002C144.994 404.816 144.51 404.467 144.16 404C141.877 400.256 139.179 396.203 136.213 391.744C115.647 363.655 101.835 331.202 95.8507 296.907C89.8666 269.046 79.298 242.372 64.576 217.973C59.936 209.269 55.4027 200.693 51.2213 192.011H128V202.677C128 213.993 132.495 224.846 140.497 232.847C148.498 240.849 159.351 245.344 170.667 245.344H256C267.316 245.344 278.168 240.849 286.17 232.847C294.171 224.846 298.667 213.993 298.667 202.677V192H375.467C371.264 200.683 366.741 209.259 362.091 217.963ZM149.333 202.667V160C149.333 154.342 151.581 148.916 155.582 144.915C159.583 140.914 165.009 138.667 170.667 138.667H256C261.658 138.667 267.084 140.914 271.085 144.915C275.086 148.916 277.333 154.342 277.333 160V202.667C277.333 208.325 275.086 213.751 271.085 217.752C267.084 221.752 261.658 224 256 224H170.667C165.009 224 159.583 221.752 155.582 217.752C151.581 213.751 149.333 208.325 149.333 202.667ZM384.683 170.667H298.667V160C298.667 148.684 294.171 137.832 286.17 129.83C278.168 121.829 267.316 117.333 256 117.333H170.667C159.351 117.333 148.498 121.829 140.497 129.83C132.495 137.832 128 148.684 128 160V170.667H41.9947C35.4503 153.644 32.0634 135.571 32 117.333C32 56.32 63.104 21.3333 117.333 21.3333C150.677 21.3333 185.675 40.256 213.813 55.4667C226.23 62.7183 239.21 68.9572 252.629 74.1227C255.317 75.0166 258.249 74.8064 260.782 73.5381C263.314 72.2699 265.239 70.0475 266.133 67.36C267.027 64.6725 266.817 61.7399 265.549 59.2074C264.281 56.6749 262.058 54.75 259.371 53.856C250.71 50.6327 242.315 46.7382 234.261 42.208C257.2 29.2104 282.978 22.0424 309.333 21.3333C363.563 21.3333 394.667 56.32 394.667 117.333C394.601 135.57 391.218 153.642 384.683 170.667Z" fill="#FFC700"/>
</svg>
