<svg width="16" height="16" viewBox="0 0 17 18" fill="none" xmlns="http://www.w3.org/2000/svg">
<g clip-path="url(#clip0_16_553)">
<path d="M15.5833 12.4849V14.6099C15.5841 14.8072 15.5437 15.0024 15.4646 15.1832C15.3856 15.3639 15.2697 15.5262 15.1243 15.6596C14.979 15.7929 14.8073 15.8945 14.6205 15.9577C14.4336 16.0209 14.2356 16.0443 14.0391 16.0266C11.8594 15.7897 9.76572 15.0449 7.92618 13.852C6.21473 12.7645 4.76371 11.3134 3.67618 9.60199C2.47908 7.75409 1.7341 5.65019 1.5016 3.46074C1.4839 3.26486 1.50718 3.06744 1.56995 2.88106C1.63273 2.69467 1.73363 2.52339 1.86622 2.37814C1.99882 2.23288 2.16021 2.11683 2.34012 2.03736C2.52002 1.95789 2.71451 1.91676 2.91118 1.91657H5.03618C5.37994 1.91319 5.7132 2.03492 5.97385 2.25907C6.23449 2.48323 6.40474 2.79451 6.45285 3.13491C6.54254 3.81495 6.70888 4.48267 6.94868 5.12532C7.04398 5.37885 7.06461 5.65439 7.00812 5.91928C6.95162 6.18417 6.82038 6.42732 6.62993 6.61991L5.73035 7.51949C6.7387 9.29283 8.207 10.7611 9.98035 11.7695L10.8799 10.8699C11.0725 10.6795 11.3157 10.5482 11.5806 10.4917C11.8455 10.4352 12.121 10.4559 12.3745 10.5512C13.0172 10.791 13.6849 10.9573 14.3649 11.047C14.709 11.0955 15.0233 11.2688 15.2479 11.534C15.4725 11.7991 15.5919 12.1375 15.5833 12.4849Z" stroke="#FFC700" stroke-width="2" stroke-linecap="round" stroke-linejoin="round"/>
</g>
<defs>
<clipPath id="clip0_16_553">
<rect width="17" height="17" fill="white" transform="translate(0 0.5)"/>
</clipPath>
</defs>
</svg>
