<svg width="36" height="36" viewBox="0 0 118 118" fill="none" xmlns="http://www.w3.org/2000/svg">
<path d="M115.353 93.12L97.1308 74.8951C93.5016 71.2804 87.4901 71.3911 83.7339 75.1473L74.5538 84.3273C73.9743 84.0064 73.3738 83.6727 72.7424 83.3185C66.9453 80.1063 59.0099 75.7036 50.6593 67.3471C42.2854 58.9738 37.8768 51.0256 34.6559 45.2244C34.314 44.6093 33.989 44.0176 33.668 43.4549L39.8298 37.3013L42.8585 34.2685C46.6212 30.5058 46.7254 24.4961 43.1026 20.8715L24.8794 2.64425C21.2589 -0.976271 15.2451 -0.866187 11.4824 2.89645L6.34637 8.06164L6.4879 8.20143C4.76618 10.3984 3.32577 12.9333 2.25639 15.6661C1.26855 18.2674 0.653481 20.7504 0.372157 23.2368C-2.03337 43.1858 7.08201 61.4166 31.8211 86.158C66.0174 120.352 93.5767 117.769 94.7649 117.642C97.3563 117.334 99.8363 116.715 102.359 115.735C105.069 114.676 107.602 113.24 109.796 111.522L109.909 111.62L115.112 106.525C118.866 102.763 118.975 96.7534 115.353 93.12ZM111.064 102.474L108.771 104.763L107.857 105.64C106.419 107.031 103.93 108.984 100.295 110.405C98.2311 111.2 96.1966 111.71 94.1266 111.957C93.8662 111.982 67.9453 114.193 35.8645 82.1146C8.58706 54.8384 4.21576 39.1209 6.04815 23.8979C6.27764 21.8803 6.78379 19.8499 7.59282 17.728C9.02681 14.072 10.978 11.5849 12.3579 10.1445L15.5281 6.94275C17.0559 5.4109 19.4387 5.29383 20.8354 6.69055L39.058 24.9131C40.4524 26.3116 40.3424 28.6944 38.8122 30.2309L26.5056 42.5253L27.6414 44.4369C28.2728 45.5022 28.9403 46.6963 29.6532 47.9934C33.0384 54.0987 37.6701 62.4557 46.6148 71.3922C55.5362 80.3183 63.881 84.9459 69.9676 88.3224C71.2828 89.0499 72.4838 89.7191 73.5613 90.361L75.477 91.4967L87.7755 79.1942C89.3097 77.6664 91.7007 77.5534 93.0974 78.9461L111.312 97.1646C112.704 98.5607 112.594 100.944 111.064 102.474Z" fill="#336BC5"/>
</svg>
