<svg id="Layer_1" enable-background="new 0 0 26 26" height="512" viewBox="0 0 26 26" width="512" xmlns="http://www.w3.org/2000/svg"><g id="_x34_29"><path d="m4.3250122 20.6500244c0 2.4799805 3.7299805 4.3499756 8.6799316 4.3499756 4.9400635 0 8.6700439-1.8699951 8.6700439-4.3499756 0-1.3800049-1.1600342-2.5800171-3.0499268-3.3600464-1.3100586 1.960022-2.6201172 3.6200562-3.3000488 4.4500122-1.2183819 1.4702892-3.4213991 1.4598579-4.6400146.0100098-.6900635-.8300171-2-2.4899902-3.3099365-4.460022-1.8901367.7800293-3.0500488 1.9800415-3.0500488 3.3600464z"/><path d="m13.0049438 20.8400269c.3000488 0 .5800781-.1400146.7700195-.3699951.6800537-.8300171 6.6500244-8.25 6.6500244-12.0400391.0000001-4.0999756-3.329956-7.4299927-7.4200439-7.4299927-4.0999755 0-7.4299316 3.3300171-7.4299316 7.4299927 0 3.7900391 5.9699707 11.210022 6.6499023 12.0400391.1900635.2299804.4801026.3699951.7800293.3699951zm-3.0300292-12.3000489c0-1.6699829 1.3601074-3.0199585 3.0300293-3.0199585 1.6600342 0 3.0200195 1.3499756 3.0200195 3.0199585 0 1.6700439-1.3599854 3.0200195-3.0200195 3.0200195-1.6699219.0000001-3.0300293-1.3499755-3.0300293-3.0200195z"/></g></svg>