<svg width="36" height="36" viewBox="0 0 202 236" fill="none" xmlns="http://www.w3.org/2000/svg">
<path d="M186.319 18.2665C175.798 6.48771 161.315 0 145.54 0C133.186 0 119.955 7.29986 110.294 12.6298C107.094 14.3945 102.318 17.2856 100.91 17.2862C99.508 17.2868 94.7536 14.4027 91.5676 12.6392C81.9268 7.30576 68.7238 0 56.2833 0C40.5081 0 26.0258 6.48771 15.5045 18.2665C5.5063 29.4607 0 44.1931 0 59.7477C0 69.7671 1.84133 81.5382 4.72836 94.9029C7.44436 107.477 16.0553 118.063 34.2539 126.073C39.7514 128.494 49.6145 130.382 51.3839 132.151C53.5101 134.277 55.7825 141.956 55.7825 141.956C55.7825 141.956 56.2986 143.766 55.5395 143.766C51.339 143.766 47.9218 147.184 47.9218 151.384C47.9218 155.584 51.339 159.001 55.5395 159.001C55.5395 159.001 59.2051 159.001 60.4272 159.001C61.3856 159.001 61.6976 159.986 61.6976 159.986L64.3351 168.128C64.3351 168.128 64.5563 169.622 62.8017 169.622C58.6017 169.622 55.1851 173.039 55.1851 177.239C55.1851 181.439 58.6017 184.857 62.8017 184.857C62.8017 184.857 67.3248 184.857 68.8323 184.857C69.9381 184.857 70.3074 185.749 70.3074 185.749L73.3749 194.926C73.3749 194.926 73.5506 195.478 72.8871 195.478C72.197 195.478 70.1257 195.478 70.1257 195.478C65.9246 195.478 62.5079 198.896 62.5079 203.096C62.5079 207.297 65.9246 210.714 70.1257 210.714C70.1257 210.714 75.8278 210.714 77.7287 210.714C78.7608 210.714 78.9213 211.524 78.9213 211.524L83.6243 225.593L83.652 225.667C86.4576 232.522 92.1361 236 100.53 236H100.997C109.39 236 115.068 232.523 117.894 225.617C117.894 225.617 121.421 214.869 122.724 211.333C122.982 210.631 123.461 210.714 123.461 210.714H131.698C135.898 210.714 139.315 207.297 139.315 203.096C139.315 198.896 137.248 195.478 131.698 195.478C130.53 195.478 129.38 195.482 128.88 195.482C128.106 195.482 128.585 194.155 128.585 194.155L131.387 185.713C131.387 185.713 131.534 184.859 132.346 184.859C134.014 184.859 139.021 184.859 139.021 184.859C143.221 184.859 146.638 181.441 146.638 177.241C146.638 173.041 143.585 169.625 139.386 169.625C138.492 169.625 138.181 169.654 137.837 169.654C136.916 169.654 137.432 168.609 137.432 168.609C137.432 168.609 139.426 162.037 140.27 159.504C140.454 158.951 141.044 159.003 141.044 159.003H146.283C150.483 159.003 153.899 155.585 153.899 151.385C153.899 147.185 150.483 143.767 146.283 143.767C145.615 143.767 145.74 142.886 145.849 142.45C146.537 139.672 147.823 133.959 150.272 132.152C152.585 130.445 161.903 128.442 167.283 126.075C185.089 118.236 194.408 106.399 196.749 95.6242C199.71 82.0053 201.824 69.6851 201.824 59.7483C201.825 44.1931 196.318 29.4625 186.319 18.2665ZM108.98 222.047C107.314 226.084 102.269 226.397 100.763 226.397C99.2602 226.397 94.237 226.085 92.5573 222.077L88.9348 211.216C88.9348 211.216 88.8481 210.712 89.5487 210.712C95.3664 210.712 106.703 210.712 112.421 210.712C112.827 210.712 112.74 210.946 112.74 210.946L108.98 222.047ZM117.723 195.477C109.334 195.477 92.6204 195.477 84.1663 195.477C83.6502 195.477 83.5393 194.965 83.5393 194.965L80.2748 185.248C80.2748 185.248 80.2218 184.857 80.8853 184.857C91.0586 184.857 111.122 184.857 121.2 184.857C121.581 184.857 121.483 185.139 121.483 185.139L118.039 195.3C118.041 195.3 117.944 195.477 117.723 195.477ZM126.902 169.26C126.902 169.26 126.816 169.622 126.435 169.622C122.801 169.622 87.7092 169.622 75.5901 169.622C75.0493 169.622 74.9266 169.284 74.9266 169.284L71.7299 159.618C71.7299 159.618 71.5229 158.987 72.3339 158.987C88.1845 158.987 115.453 159.001 129.826 159.001C130.342 159.001 130.204 159.4 130.204 159.4L126.902 169.26ZM134.447 143.764C117.598 143.764 67.2351 143.726 67.2351 143.726C67.2351 143.726 66.7191 143.726 66.4731 143.21C65.7642 141.723 64.3841 138.026 63.8255 135.915C63.5159 134.746 64.63 135.101 64.63 135.101C76.4087 137.355 87.79 138.257 100.768 138.257C113.933 138.257 125.799 137.271 137.715 134.953C137.715 134.953 138.551 134.806 138.356 135.338C137.709 137.113 136.405 141.028 135.811 142.829C135.619 143.407 135.036 143.764 134.447 143.764ZM188.314 92.6363C187.907 94.4127 186.607 97.6536 185.934 99.4749C183.421 106.276 174.862 112.397 163.47 117.413C157.622 119.987 151.007 122.183 143.811 123.938L142.556 124.241C129.859 127.219 115.409 128.793 100.768 128.793C86.5337 128.793 72.4524 127.301 60.009 124.477L58.7852 124.195C51.1863 122.402 44.2173 120.121 38.0664 117.414C26.9016 112.499 17.8218 105.673 15.124 99.1063C14.2576 96.9966 12.8014 91.8996 12.8014 91.8996C9.89317 79.5016 9.46262 68.7367 9.46262 59.7489C9.46262 35.0307 26.9759 9.46439 56.2827 9.46439C63.8886 9.46439 73.9069 12.9453 83.084 18.7766C84.424 19.6289 86.3355 21.098 88.1834 22.5194C88.9177 23.0839 89.6419 23.64 90.3172 24.1496C92.5083 25.7887 95.4691 27.9349 98.937 29.9762C100.761 31.0531 102.421 32.008 104.258 32.7883C111.77 35.9767 119.736 37.5939 127.933 37.5939C136.297 37.5939 146.57 35.5621 146.428 34.4008C146.287 33.2395 129.163 33.2395 117.762 30.2192C113.211 29.0142 108.053 27.0608 108.053 25.9904C108.053 24.8491 109.662 23.9538 110.926 23.1995C112.027 22.5407 113.277 21.794 114.87 20.9152C123.629 16.083 135.624 9.46498 145.539 9.46498C174.846 9.46498 192.36 35.0313 192.36 59.7495C192.36 68.6141 191.196 80.0867 188.314 92.6363Z" fill="#FFC700"/>
</svg>
