<svg width="118" height="118" viewBox="0 0 118 118" fill="none" xmlns="http://www.w3.org/2000/svg">
<path fill-rule="evenodd" clip-rule="evenodd" d="M0 59C0 26.4152 26.4152 0 59 0C91.5848 0 118 26.4152 118 59C118 91.5848 91.5848 118 59 118C26.4152 118 0 91.5848 0 59ZM57.233 47.9559L57.3568 49.9975L55.2933 49.7475C47.7823 48.7892 41.2205 45.5394 35.6491 40.0815L32.9253 37.3733L32.2238 39.3732C30.7381 43.8312 31.6873 48.5392 34.7825 51.7057C36.4332 53.4556 36.0618 53.7056 33.2142 52.664C32.2238 52.3307 31.3571 52.0807 31.2746 52.2057C30.9857 52.4973 31.9762 56.2887 32.7603 57.7886C33.8333 59.8718 36.0205 61.9134 38.4142 63.1216L40.4364 64.0799L38.0427 64.1215C35.7317 64.1215 35.6491 64.1632 35.8967 65.0382C36.7221 67.7463 39.9824 70.6211 43.6141 71.871L46.1728 72.746L43.9442 74.0792C40.6427 75.9958 36.7634 77.079 32.8841 77.1624C31.027 77.204 29.5 77.3707 29.5 77.4957C29.5 77.9123 34.5349 80.2455 37.465 81.1621C46.2553 83.8703 56.6965 82.7037 64.5376 78.079C70.109 74.7875 75.6803 68.2463 78.2803 61.9134C79.6834 58.5386 81.0866 52.3723 81.0866 49.4142C81.0866 47.4976 81.2104 47.2476 83.5215 44.9561C84.8834 43.6229 86.1627 42.1647 86.4103 41.748C86.823 40.9564 86.7818 40.9564 84.677 41.6647C81.1691 42.9146 80.6739 42.7479 82.4072 40.8731C83.6866 39.5398 85.2135 37.1233 85.2135 36.415C85.2135 36.29 84.5945 36.4984 83.8929 36.8733C83.1501 37.29 81.4993 37.9149 80.2612 38.2899L78.0327 38.9982L76.0105 37.6233C74.8962 36.8733 73.328 36.0401 72.5026 35.7901C70.3979 35.2068 67.1789 35.2901 65.2805 35.9567C60.1218 37.8316 56.8615 42.6646 57.233 47.9559Z" fill="#FFC700"/>
</svg>
