<svg width="36" height="36" viewBox="0 0 118 118" fill="none" xmlns="http://www.w3.org/2000/svg">
<path fill-rule="evenodd" clip-rule="evenodd" d="M15.7316 82.7598L8.71509 108.379L34.9322 101.504C42.1562 105.443 50.2888 107.519 58.565 107.523H58.5864C85.8427 107.523 108.031 85.3414 108.043 58.0831C108.047 44.8717 102.906 32.4504 93.5706 23.1053C84.232 13.7602 71.8153 8.61192 58.5864 8.60547C31.3253 8.60547 9.14115 30.7831 9.13006 58.0433C9.12728 66.7567 11.4041 75.2626 15.7316 82.7598ZM17.4804 58.0459C17.4887 35.3893 35.9281 16.9567 58.6022 16.9567C69.5822 16.9613 79.9018 21.2405 87.663 29.0073C95.4242 36.7741 99.6954 47.0992 99.6914 58.0792C99.6821 80.7376 81.2428 99.1722 58.5863 99.1722H58.5706C51.1929 99.1685 43.9587 97.1883 37.649 93.4434L36.1467 92.5531L20.5888 96.6324L24.7425 81.4695L23.7643 79.9151C19.6498 73.3719 17.477 65.8099 17.4804 58.0459Z" fill="#336BC5"/>
<path fill-rule="evenodd" clip-rule="evenodd" d="M46.2264 37.3744C45.3001 35.3172 44.3257 35.2755 43.4457 35.2394C42.7251 35.2088 41.9007 35.2107 41.0772 35.2107C40.2529 35.2107 38.9144 35.5201 37.7825 36.7566C36.6497 37.9932 33.4568 40.9823 33.4568 47.0623C33.4568 53.1423 37.8853 59.0167 38.5022 59.842C39.12 60.6664 47.0507 73.5416 59.6119 78.4943C70.05 82.6107 72.1739 81.7919 74.4405 81.5862C76.7061 81.3806 81.7515 78.5972 82.7806 75.7118C83.8106 72.8265 83.8106 70.3543 83.5022 69.8374C83.1928 69.3215 82.3694 69.013 81.1328 68.3952C79.8971 67.7774 73.8217 64.7874 72.6889 64.3752C71.5561 63.963 70.7326 63.7574 69.9083 64.994C69.0848 66.2305 66.7182 69.013 65.9966 69.8374C65.276 70.6627 64.5554 70.7655 63.3188 70.1477C62.0832 69.528 58.103 68.2248 53.3818 64.0149C49.7082 60.7396 47.2286 56.6946 46.507 55.458C45.7864 54.2214 46.4301 53.5527 47.0498 52.9367C47.6046 52.3828 48.2854 51.4936 48.9042 50.772C49.5202 50.0504 49.7267 49.5354 50.138 48.712C50.5502 47.8867 50.3445 47.1651 50.0352 46.5473C49.7267 45.9295 47.3249 39.8179 46.2264 37.3744Z" fill="#336BC5"/>
</svg>
