<svg width="36" height="36" viewBox="0 0 256 256" fill="none" xmlns="http://www.w3.org/2000/svg">
<path fill-rule="evenodd" clip-rule="evenodd" d="M217.032 38.1586C193.372 14.4703 161.905 1.42067 128.382 1.40662C59.3066 1.40662 3.08978 57.6207 3.06168 126.716C3.05325 148.802 8.82218 170.361 19.7896 189.368L2.01074 254.307L68.4448 236.879C86.7491 246.863 107.358 252.126 128.331 252.132H128.382C128.385 252.132 128.379 252.132 128.382 252.132C197.449 252.132 253.672 195.912 253.7 126.814C253.714 93.3301 240.692 61.8469 217.032 38.1586ZM77.4902 131.276C75.925 129.186 64.7046 114.298 64.7046 98.8855C64.7046 83.4727 72.7946 75.8969 75.6637 72.7638C78.5327 69.6306 81.9271 68.8466 84.015 68.8466C86.1028 68.8466 88.1934 68.8663 90.0171 68.9562C91.9392 69.0546 94.5216 68.2256 97.0618 74.3317C99.6723 80.6008 105.933 96.0165 106.717 97.5817C107.501 99.1497 108.021 100.976 106.978 103.067C105.936 105.155 105.413 106.461 103.848 108.291C102.283 110.12 100.56 112.374 99.1496 113.776C97.5817 115.338 95.949 117.032 97.7755 120.166C99.602 123.302 105.885 133.555 115.195 141.859C127.154 152.528 137.245 155.833 140.375 157.401C143.505 158.969 145.332 158.708 147.158 156.617C148.985 154.526 154.987 147.473 157.075 144.34C159.163 141.207 161.251 141.73 164.12 142.772C166.991 143.817 182.385 151.393 185.515 152.958C188.645 154.526 190.733 155.31 191.517 156.617C192.301 157.924 192.301 164.193 189.691 171.507C187.08 178.822 174.57 185.498 168.554 186.395C163.159 187.201 156.333 187.538 148.83 185.153C144.284 183.711 138.45 181.783 130.978 178.557C99.5711 164.994 79.0581 133.367 77.4902 131.276Z" fill="#FFC700"/>
</svg>
