<svg width="16" height="16" viewBox="0 0 118 118" fill="none" xmlns="http://www.w3.org/2000/svg">
<path fill-rule="evenodd" clip-rule="evenodd" d="M15.7316 82.7598L8.71509 108.379L34.9322 101.504C42.1562 105.443 50.2888 107.519 58.565 107.523H58.5864C85.8427 107.523 108.031 85.3414 108.043 58.0831C108.047 44.8717 102.906 32.4504 93.5706 23.1053C84.232 13.7602 71.8153 8.61192 58.5864 8.60547C31.3253 8.60547 9.14115 30.7831 9.13006 58.0433C9.12728 66.7567 11.4041 75.2626 15.7316 82.7598ZM17.4804 58.0459C17.4887 35.3893 35.9281 16.9567 58.6022 16.9567C69.5822 16.9613 79.9018 21.2405 87.663 29.0073C95.4242 36.7741 99.6954 47.0992 99.6914 58.0792C99.6821 80.7376 81.2428 99.1722 58.5863 99.1722H58.5706C51.1929 99.1685 43.9587 97.1883 37.649 93.4434L36.1467 92.5531L20.5888 96.6324L24.7425 81.4695L23.7643 79.9151C19.6498 73.3719 17.477 65.8099 17.4804 58.0459Z" fill="#FFC700"/>
<path fill-rule="evenodd" clip-rule="evenodd" d="M46.2263 37.3744C45.3 35.3172 44.3256 35.2755 43.4456 35.2394C42.725 35.2088 41.9006 35.2107 41.0771 35.2107C40.2528 35.2107 38.9143 35.5201 37.7824 36.7566C36.6496 37.9932 33.4567 40.9823 33.4567 47.0623C33.4567 53.1423 37.8852 59.0167 38.5021 59.842C39.1199 60.6664 47.0506 73.5416 59.6118 78.4943C70.0499 82.6107 72.1738 81.7919 74.4404 81.5862C76.706 81.3806 81.7514 78.5972 82.7805 75.7118C83.8105 72.8265 83.8105 70.3543 83.5021 69.8374C83.1927 69.3215 82.3693 69.013 81.1327 68.3952C79.897 67.7774 73.8216 64.7874 72.6888 64.3752C71.556 63.963 70.7325 63.7574 69.9082 64.994C69.0847 66.2305 66.7181 69.013 65.9965 69.8374C65.2759 70.6627 64.5553 70.7655 63.3187 70.1477C62.0831 69.528 58.1029 68.2248 53.3817 64.0149C49.7081 60.7396 47.2285 56.6946 46.5069 55.458C45.7863 54.2214 46.43 53.5527 47.0497 52.9367C47.6045 52.3828 48.2853 51.4936 48.9041 50.772C49.5201 50.0504 49.7266 49.5354 50.1379 48.712C50.5501 47.8867 50.3444 47.1651 50.0351 46.5473C49.7266 45.9295 47.3248 39.8179 46.2263 37.3744Z" fill="#FFC700"/>
</svg>
