<svg width="132" height="132" viewBox="0 0 132 132" fill="none" xmlns="http://www.w3.org/2000/svg">
<path fill-rule="evenodd" clip-rule="evenodd" d="M66 0C102.451 0 132 29.5492 132 66C132 102.451 102.451 132 66 132C29.5492 132 0 102.451 0 66C0 29.5492 29.5492 0 66 0ZM31.1747 36.6722C38.1562 34.8581 65.9725 34.8581 65.9725 34.8581C65.9725 34.8581 93.8439 34.8582 100.825 36.7822C104.618 37.7717 107.641 40.7948 108.631 44.5879C110.555 51.5694 110.5 66.0826 110.5 66.0826C110.5 66.0826 110.5 80.5407 108.631 87.4673C107.641 91.3153 104.618 94.2835 100.825 95.328C93.8439 97.1421 65.9725 97.1421 65.9725 97.1421C65.9725 97.1421 38.2112 97.1421 31.1747 95.273C27.3815 94.2285 24.3584 91.2054 23.314 87.4123C21.4999 80.5406 21.4998 66.0276 21.4998 66.0276C21.4998 66.0276 21.4999 51.5694 23.314 44.5879C24.3584 40.7948 27.4365 37.7167 31.1747 36.6722ZM80.2656 66.0276L57.1218 52.6695V79.3307L80.2656 66.0276Z" fill="#FFC700"/>
</svg>
